<svg width="328" height="88" viewBox="0 0 328 88" fill="none" xmlns="http://www.w3.org/2000/svg">
<path d="M2.84 12.88C2.92533 13.2213 2.968 13.648 2.968 14.16C2.968 14.6507 2.92533 15.0773 2.84 15.44H1.56C1.64533 15.7813 1.688 16.208 1.688 16.72C1.688 17.2107 1.64533 17.6373 1.56 18H0.28C0.194667 17.6373 0.152 17.2107 0.152 16.72C0.152 16.208 0.194667 15.7813 0.28 15.44C0.194667 15.0773 0.152 14.6507 0.152 14.16C0.152 13.648 0.194667 13.2213 0.28 12.88C0.194667 12.5173 0.152 12.0907 0.152 11.6C0.152 11.088 0.194667 10.6613 0.28 10.32C0.194667 9.95733 0.152 9.53067 0.152 9.04C0.152 8.528 0.194667 8.10133 0.28 7.76C0.194667 7.39733 0.152 6.97067 0.152 6.48C0.152 5.968 0.194667 5.54133 0.28 5.2C0.194667 4.83733 0.152 4.41067 0.152 3.92C0.152 3.408 0.194667 2.98133 0.28 2.64C0.194667 2.27733 0.152 1.85067 0.152 1.36C0.152 0.847999 0.194667 0.421333 0.28 0.0799999H2.84C2.92533 0.421333 2.968 0.847999 2.968 1.36C2.968 1.85067 2.92533 2.27733 2.84 2.64C2.92533 2.98133 2.968 3.408 2.968 3.92C2.968 4.41067 2.92533 4.83733 2.84 5.2C2.92533 5.54133 2.968 5.968 2.968 6.48C2.968 6.97067 2.92533 7.39733 2.84 7.76H4.12C4.20533 8.10133 4.248 8.528 4.248 9.04C4.248 9.53067 4.20533 9.95733 4.12 10.32H2.84C2.92533 10.6613 2.968 11.088 2.968 11.6C2.968 12.0907 2.92533 12.5173 2.84 12.88ZM10.648 11.6C10.648 12.0907 10.6053 12.5173 10.52 12.88H9.24C9.32533 13.2213 9.368 13.648 9.368 14.16C9.368 14.6507 9.32533 15.0773 9.24 15.44H6.68C6.59467 15.0773 6.552 14.6507 6.552 14.16C6.552 13.648 6.59467 13.2213 6.68 12.88H7.96C7.87467 12.5173 7.832 12.0907 7.832 11.6C7.832 11.088 7.87467 10.6613 7.96 10.32H6.68C6.59467 9.95733 6.552 9.53067 6.552 9.04C6.552 8.528 6.59467 8.10133 6.68 7.76H4.12C4.03467 7.39733 3.992 6.97067 3.992 6.48C3.992 5.968 4.03467 5.54133 4.12 5.2H7.96C8.04533 5.54133 8.088 5.968 8.088 6.48C8.088 6.97067 8.04533 7.39733 7.96 7.76H9.24C9.32533 8.10133 9.368 8.528 9.368 9.04C9.368 9.53067 9.32533 9.95733 9.24 10.32H10.52C10.6053 10.6613 10.648 11.088 10.648 11.6ZM2.712 16.72C2.712 16.208 2.75467 15.7813 2.84 15.44H6.68C6.76533 15.7813 6.808 16.208 6.808 16.72C6.808 17.2107 6.76533 17.6373 6.68 18H2.84C2.75467 17.6373 2.712 17.2107 2.712 16.72ZM16.7405 14.16C16.7405 14.6507 16.6978 15.0773 16.6125 15.44H19.8125C19.8978 15.7813 19.9405 16.208 19.9405 16.72C19.9405 17.2107 19.8978 17.6373 19.8125 18H14.6925C14.6072 17.6373 14.5645 17.2107 14.5645 16.72C14.5645 16.208 14.6072 15.7813 14.6925 15.44H13.0925C13.0072 15.0773 12.9645 14.6507 12.9645 14.16C12.9645 13.648 13.0072 13.2213 13.0925 12.88C13.0072 12.5173 12.9645 12.0907 12.9645 11.6C12.9645 11.088 13.0072 10.6613 13.0925 10.32C13.0072 9.95733 12.9645 9.53067 12.9645 9.04C12.9645 8.528 13.0072 8.10133 13.0925 7.76C13.0072 7.39733 12.9645 6.97067 12.9645 6.48C12.9645 5.968 13.0072 5.54133 13.0925 5.2H15.6525C15.7378 5.54133 15.7805 5.968 15.7805 6.48C15.7805 6.97067 15.7378 7.39733 15.6525 7.76C15.7378 8.10133 15.7805 8.528 15.7805 9.04C15.7805 9.53067 15.7378 9.95733 15.6525 10.32C15.7378 10.6613 15.7805 11.088 15.7805 11.6C15.7805 12.0907 15.7378 12.5173 15.6525 12.88H16.6125C16.6978 13.2213 16.7405 13.648 16.7405 14.16ZM23.3325 7.76C23.4178 8.10133 23.4605 8.528 23.4605 9.04C23.4605 9.53067 23.4178 9.95733 23.3325 10.32C23.4178 10.6613 23.4605 11.088 23.4605 11.6C23.4605 12.0907 23.4178 12.5173 23.3325 12.88C23.4178 13.2213 23.4605 13.648 23.4605 14.16C23.4605 14.6507 23.4178 15.0773 23.3325 15.44C23.4178 15.7813 23.4605 16.208 23.4605 16.72C23.4605 17.2107 23.4178 17.6373 23.3325 18H20.7725C20.6872 17.6373 20.6445 17.2107 20.6445 16.72C20.6445 16.208 20.6872 15.7813 20.7725 15.44H19.8125C19.7272 15.0773 19.6845 14.6507 19.6845 14.16C19.6845 13.648 19.7272 13.2213 19.8125 12.88H20.7725C20.6872 12.5173 20.6445 12.0907 20.6445 11.6C20.6445 11.088 20.6872 10.6613 20.7725 10.32C20.6872 9.95733 20.6445 9.53067 20.6445 9.04C20.6445 8.528 20.6872 8.10133 20.7725 7.76C20.6872 7.39733 20.6445 6.97067 20.6445 6.48C20.6445 5.968 20.6872 5.54133 20.7725 5.2H23.3325C23.4178 5.54133 23.4605 5.968 23.4605 6.48C23.4605 6.97067 23.4178 7.39733 23.3325 7.76ZM29.745 2.64C29.6597 2.27733 29.617 1.85067 29.617 1.36C29.617 0.847999 29.6597 0.421333 29.745 0.0799999H32.305C32.3903 0.421333 32.433 0.847999 32.433 1.36C32.433 1.85067 32.3903 2.27733 32.305 2.64H29.745ZM34.865 15.44C34.9503 15.7813 34.993 16.208 34.993 16.72C34.993 17.2107 34.9503 17.6373 34.865 18H27.185C27.0997 17.6373 27.057 17.2107 27.057 16.72C27.057 16.208 27.0997 15.7813 27.185 15.44H29.745C29.6597 15.0773 29.617 14.6507 29.617 14.16C29.617 13.648 29.6597 13.2213 29.745 12.88C29.6597 12.5173 29.617 12.0907 29.617 11.6C29.617 11.088 29.6597 10.6613 29.745 10.32C29.6597 9.95733 29.617 9.53067 29.617 9.04C29.617 8.528 29.6597 8.10133 29.745 7.76H27.825C27.7397 7.39733 27.697 6.97067 27.697 6.48C27.697 5.968 27.7397 5.54133 27.825 5.2H32.305C32.3903 5.54133 32.433 5.968 32.433 6.48C32.433 6.97067 32.3903 7.39733 32.305 7.76C32.3903 8.10133 32.433 8.528 32.433 9.04C32.433 9.53067 32.3903 9.95733 32.305 10.32C32.3903 10.6613 32.433 11.088 32.433 11.6C32.433 12.0907 32.3903 12.5173 32.305 12.88C32.3903 13.2213 32.433 13.648 32.433 14.16C32.433 14.6507 32.3903 15.0773 32.305 15.44H34.865ZM47.6775 15.44C47.7628 15.7813 47.8055 16.208 47.8055 16.72C47.8055 17.2107 47.7628 17.6373 47.6775 18H39.9975C39.9122 17.6373 39.8695 17.2107 39.8695 16.72C39.8695 16.208 39.9122 15.7813 39.9975 15.44H42.5575C42.4722 15.0773 42.4295 14.6507 42.4295 14.16C42.4295 13.648 42.4722 13.2213 42.5575 12.88C42.4722 12.5173 42.4295 12.0907 42.4295 11.6C42.4295 11.088 42.4722 10.6613 42.5575 10.32C42.4722 9.95733 42.4295 9.53067 42.4295 9.04C42.4295 8.528 42.4722 8.10133 42.5575 7.76C42.4722 7.39733 42.4295 6.97067 42.4295 6.48C42.4295 5.968 42.4722 5.54133 42.5575 5.2C42.4722 4.83733 42.4295 4.41067 42.4295 3.92C42.4295 3.408 42.4722 2.98133 42.5575 2.64H40.6375C40.5522 2.27733 40.5095 1.85067 40.5095 1.36C40.5095 0.847999 40.5522 0.421333 40.6375 0.0799999H45.1175C45.2028 0.421333 45.2455 0.847999 45.2455 1.36C45.2455 1.85067 45.2028 2.27733 45.1175 2.64C45.2028 2.98133 45.2455 3.408 45.2455 3.92C45.2455 4.41067 45.2028 4.83733 45.1175 5.2C45.2028 5.54133 45.2455 5.968 45.2455 6.48C45.2455 6.97067 45.2028 7.39733 45.1175 7.76C45.2028 8.10133 45.2455 8.528 45.2455 9.04C45.2455 9.53067 45.2028 9.95733 45.1175 10.32C45.2028 10.6613 45.2455 11.088 45.2455 11.6C45.2455 12.0907 45.2028 12.5173 45.1175 12.88C45.2028 13.2213 45.2455 13.648 45.2455 14.16C45.2455 14.6507 45.2028 15.0773 45.1175 15.44H47.6775ZM61.77 2.64C61.8553 2.98133 61.898 3.408 61.898 3.92C61.898 4.41067 61.8553 4.83733 61.77 5.2C61.8553 5.54133 61.898 5.968 61.898 6.48C61.898 6.97067 61.8553 7.39733 61.77 7.76C61.8553 8.10133 61.898 8.528 61.898 9.04C61.898 9.53067 61.8553 9.95733 61.77 10.32C61.8553 10.6613 61.898 11.088 61.898 11.6C61.898 12.0907 61.8553 12.5173 61.77 12.88C61.8553 13.2213 61.898 13.648 61.898 14.16C61.898 14.6507 61.8553 15.0773 61.77 15.44C61.8553 15.7813 61.898 16.208 61.898 16.72C61.898 17.2107 61.8553 17.6373 61.77 18H59.21C59.1247 17.6373 59.082 17.2107 59.082 16.72C59.082 16.208 59.1247 15.7813 59.21 15.44H58.25C58.1647 15.0773 58.122 14.6507 58.122 14.16C58.122 13.648 58.1647 13.2213 58.25 12.88H59.21C59.1247 12.5173 59.082 12.0907 59.082 11.6C59.082 11.088 59.1247 10.6613 59.21 10.32H58.25C58.1647 9.95733 58.122 9.53067 58.122 9.04C58.122 8.528 58.1647 8.10133 58.25 7.76H59.21C59.1247 7.39733 59.082 6.97067 59.082 6.48C59.082 5.968 59.1247 5.54133 59.21 5.2C59.1247 4.83733 59.082 4.41067 59.082 3.92C59.082 3.408 59.1247 2.98133 59.21 2.64C59.1247 2.27733 59.082 1.85067 59.082 1.36C59.082 0.847999 59.1247 0.421333 59.21 0.0799999H61.77C61.8553 0.421333 61.898 0.847999 61.898 1.36C61.898 1.85067 61.8553 2.27733 61.77 2.64ZM57.738 6.48C57.738 6.97067 57.6953 7.39733 57.61 7.76H54.41C54.4953 8.10133 54.538 8.528 54.538 9.04C54.538 9.53067 54.4953 9.95733 54.41 10.32H53.45C53.5353 10.6613 53.578 11.088 53.578 11.6C53.578 12.0907 53.5353 12.5173 53.45 12.88H54.41C54.4953 13.2213 54.538 13.648 54.538 14.16C54.538 14.6507 54.4953 15.0773 54.41 15.44H57.61C57.6953 15.7813 57.738 16.208 57.738 16.72C57.738 17.2107 57.6953 17.6373 57.61 18H54.09C54.0047 17.6373 53.962 17.2107 53.962 16.72C53.962 16.208 54.0047 15.7813 54.09 15.44H52.49C52.4047 15.0773 52.362 14.6507 52.362 14.16C52.362 13.648 52.4047 13.2213 52.49 12.88H51.53C51.4447 12.5173 51.402 12.0907 51.402 11.6C51.402 11.088 51.4447 10.6613 51.53 10.32H52.49C52.4047 9.95733 52.362 9.53067 52.362 9.04C52.362 8.528 52.4047 8.10133 52.49 7.76H54.09C54.0047 7.39733 53.962 6.97067 53.962 6.48C53.962 5.968 54.0047 5.54133 54.09 5.2H57.61C57.6953 5.54133 57.738 5.968 57.738 6.48ZM68.1825 2.64C68.0972 2.27733 68.0545 1.85067 68.0545 1.36C68.0545 0.847999 68.0972 0.421333 68.1825 0.0799999H70.7425C70.8278 0.421333 70.8705 0.847999 70.8705 1.36C70.8705 1.85067 70.8278 2.27733 70.7425 2.64H68.1825ZM73.3025 15.44C73.3878 15.7813 73.4305 16.208 73.4305 16.72C73.4305 17.2107 73.3878 17.6373 73.3025 18H65.6225C65.5372 17.6373 65.4945 17.2107 65.4945 16.72C65.4945 16.208 65.5372 15.7813 65.6225 15.44H68.1825C68.0972 15.0773 68.0545 14.6507 68.0545 14.16C68.0545 13.648 68.0972 13.2213 68.1825 12.88C68.0972 12.5173 68.0545 12.0907 68.0545 11.6C68.0545 11.088 68.0972 10.6613 68.1825 10.32C68.0972 9.95733 68.0545 9.53067 68.0545 9.04C68.0545 8.528 68.0972 8.10133 68.1825 7.76H66.2625C66.1772 7.39733 66.1345 6.97067 66.1345 6.48C66.1345 5.968 66.1772 5.54133 66.2625 5.2H70.7425C70.8278 5.54133 70.8705 5.968 70.8705 6.48C70.8705 6.97067 70.8278 7.39733 70.7425 7.76C70.8278 8.10133 70.8705 8.528 70.8705 9.04C70.8705 9.53067 70.8278 9.95733 70.7425 10.32C70.8278 10.6613 70.8705 11.088 70.8705 11.6C70.8705 12.0907 70.8278 12.5173 70.7425 12.88C70.8278 13.2213 70.8705 13.648 70.8705 14.16C70.8705 14.6507 70.8278 15.0773 70.7425 15.44H73.3025ZM79.523 6.48C79.523 6.97067 79.4803 7.39733 79.395 7.76H80.675C80.7603 8.10133 80.803 8.528 80.803 9.04C80.803 9.53067 80.7603 9.95733 80.675 10.32H79.715C79.8003 10.6613 79.843 11.088 79.843 11.6C79.843 12.0907 79.8003 12.5173 79.715 12.88C79.8003 13.2213 79.843 13.648 79.843 14.16C79.843 14.6507 79.8003 15.0773 79.715 15.44C79.8003 15.7813 79.843 16.208 79.843 16.72C79.843 17.2107 79.8003 17.6373 79.715 18H77.155C77.0697 17.6373 77.027 17.2107 77.027 16.72C77.027 16.208 77.0697 15.7813 77.155 15.44C77.0697 15.0773 77.027 14.6507 77.027 14.16C77.027 13.648 77.0697 13.2213 77.155 12.88C77.0697 12.5173 77.027 12.0907 77.027 11.6C77.027 11.088 77.0697 10.6613 77.155 10.32C77.0697 9.95733 77.027 9.53067 77.027 9.04C77.027 8.528 77.0697 8.10133 77.155 7.76C77.0697 7.39733 77.027 6.97067 77.027 6.48C77.027 5.968 77.0697 5.54133 77.155 5.2H79.395C79.4803 5.54133 79.523 5.968 79.523 6.48ZM87.395 10.32C87.4803 10.6613 87.523 11.088 87.523 11.6C87.523 12.0907 87.4803 12.5173 87.395 12.88C87.4803 13.2213 87.523 13.648 87.523 14.16C87.523 14.6507 87.4803 15.0773 87.395 15.44C87.4803 15.7813 87.523 16.208 87.523 16.72C87.523 17.2107 87.4803 17.6373 87.395 18H84.835C84.7497 17.6373 84.707 17.2107 84.707 16.72C84.707 16.208 84.7497 15.7813 84.835 15.44C84.7497 15.0773 84.707 14.6507 84.707 14.16C84.707 13.648 84.7497 13.2213 84.835 12.88C84.7497 12.5173 84.707 12.0907 84.707 11.6C84.707 11.088 84.7497 10.6613 84.835 10.32C84.7497 9.95733 84.707 9.53067 84.707 9.04C84.707 8.528 84.7497 8.10133 84.835 7.76H80.675C80.5897 7.39733 80.547 6.97067 80.547 6.48C80.547 5.968 80.5897 5.54133 80.675 5.2H85.795C85.8803 5.54133 85.923 5.968 85.923 6.48C85.923 6.97067 85.8803 7.39733 85.795 7.76H87.395C87.4803 8.10133 87.523 8.528 87.523 9.04C87.523 9.53067 87.4803 9.95733 87.395 10.32ZM100.208 7.76C100.293 8.10133 100.336 8.528 100.336 9.04C100.336 9.53067 100.293 9.95733 100.208 10.32C100.293 10.6613 100.336 11.088 100.336 11.6C100.336 12.0907 100.293 12.5173 100.208 12.88C100.293 13.2213 100.336 13.648 100.336 14.16C100.336 14.6507 100.293 15.0773 100.208 15.44C100.293 15.7813 100.336 16.208 100.336 16.72C100.336 17.2107 100.293 17.6373 100.208 18H98.9275C99.0128 18.3413 99.0555 18.768 99.0555 19.28C99.0555 19.7707 99.0128 20.1973 98.9275 20.56H97.6475C97.7328 20.9013 97.7755 21.328 97.7755 21.84C97.7755 22.3307 97.7328 22.7573 97.6475 23.12H92.5275C92.4422 22.7573 92.3995 22.3307 92.3995 21.84C92.3995 21.328 92.4422 20.9013 92.5275 20.56H96.3675C96.2822 20.1973 96.2395 19.7707 96.2395 19.28C96.2395 18.768 96.2822 18.3413 96.3675 18H97.6475C97.5622 17.6373 97.5195 17.2107 97.5195 16.72C97.5195 16.208 97.5622 15.7813 97.6475 15.44H96.3675C96.2822 15.0773 96.2395 14.6507 96.2395 14.16C96.2395 13.648 96.2822 13.2213 96.3675 12.88H97.6475C97.5622 12.5173 97.5195 12.0907 97.5195 11.6C97.5195 11.088 97.5622 10.6613 97.6475 10.32C97.5622 9.95733 97.5195 9.53067 97.5195 9.04C97.5195 8.528 97.5622 8.10133 97.6475 7.76H93.4875C93.5728 8.10133 93.6155 8.528 93.6155 9.04C93.6155 9.53067 93.5728 9.95733 93.4875 10.32H92.5275C92.6128 10.6613 92.6555 11.088 92.6555 11.6C92.6555 12.0907 92.6128 12.5173 92.5275 12.88H93.4875C93.5728 13.2213 93.6155 13.648 93.6155 14.16C93.6155 14.6507 93.5728 15.0773 93.4875 15.44H96.3675C96.4528 15.7813 96.4955 16.208 96.4955 16.72C96.4955 17.2107 96.4528 17.6373 96.3675 18H92.5275C92.4422 17.6373 92.3995 17.2107 92.3995 16.72C92.3995 16.208 92.4422 15.7813 92.5275 15.44H90.9275C90.8422 15.0773 90.7995 14.6507 90.7995 14.16C90.7995 13.648 90.8422 13.2213 90.9275 12.88H89.9675C89.8822 12.5173 89.8395 12.0907 89.8395 11.6C89.8395 11.088 89.8822 10.6613 89.9675 10.32H90.9275C90.8422 9.95733 90.7995 9.53067 90.7995 9.04C90.7995 8.528 90.8422 8.10133 90.9275 7.76H92.5275C92.4422 7.39733 92.3995 6.97067 92.3995 6.48C92.3995 5.968 92.4422 5.54133 92.5275 5.2H100.208C100.293 5.54133 100.336 5.968 100.336 6.48C100.336 6.97067 100.293 7.39733 100.208 7.76ZM125.321 14.16C125.321 14.6507 125.278 15.0773 125.193 15.44H123.913C123.998 15.7813 124.041 16.208 124.041 16.72C124.041 17.2107 123.998 17.6373 123.913 18H116.873C116.787 17.6373 116.745 17.2107 116.745 16.72C116.745 16.208 116.787 15.7813 116.873 15.44H122.633C122.547 15.0773 122.505 14.6507 122.505 14.16C122.505 13.648 122.547 13.2213 122.633 12.88H117.513C117.427 12.5173 117.385 12.0907 117.385 11.6C117.385 11.088 117.427 10.6613 117.513 10.32H116.233C116.147 9.95733 116.105 9.53067 116.105 9.04C116.105 8.528 116.147 8.10133 116.233 7.76H117.513C117.427 7.39733 117.385 6.97067 117.385 6.48C117.385 5.968 117.427 5.54133 117.513 5.2H124.553C124.638 5.54133 124.681 5.968 124.681 6.48C124.681 6.97067 124.638 7.39733 124.553 7.76H118.793C118.878 8.10133 118.921 8.528 118.921 9.04C118.921 9.53067 118.878 9.95733 118.793 10.32H123.913C123.998 10.6613 124.041 11.088 124.041 11.6C124.041 12.0907 123.998 12.5173 123.913 12.88H125.193C125.278 13.2213 125.321 13.648 125.321 14.16ZM138.773 6.48C138.773 6.97067 138.73 7.39733 138.645 7.76H137.685C137.77 8.10133 137.813 8.528 137.813 9.04C137.813 9.53067 137.77 9.95733 137.685 10.32H136.725C136.81 10.6613 136.853 11.088 136.853 11.6C136.853 12.0907 136.81 12.5173 136.725 12.88H136.085C136.17 13.2213 136.213 13.648 136.213 14.16C136.213 14.6507 136.17 15.0773 136.085 15.44H135.125C135.21 15.7813 135.253 16.208 135.253 16.72C135.253 17.2107 135.21 17.6373 135.125 18H134.485C134.57 18.3413 134.613 18.768 134.613 19.28C134.613 19.7707 134.57 20.1973 134.485 20.56H133.205C133.29 20.9013 133.333 21.328 133.333 21.84C133.333 22.3307 133.29 22.7573 133.205 23.12H129.365C129.28 22.7573 129.237 22.3307 129.237 21.84C129.237 21.328 129.28 20.9013 129.365 20.56H131.925C131.84 20.1973 131.797 19.7707 131.797 19.28C131.797 18.768 131.84 18.3413 131.925 18C131.84 17.6373 131.797 17.2107 131.797 16.72C131.797 16.208 131.84 15.7813 131.925 15.44H130.645C130.56 15.0773 130.517 14.6507 130.517 14.16C130.517 13.648 130.56 13.2213 130.645 12.88H130.005C129.92 12.5173 129.877 12.0907 129.877 11.6C129.877 11.088 129.92 10.6613 130.005 10.32H129.045C128.96 9.95733 128.917 9.53067 128.917 9.04C128.917 8.528 128.96 8.10133 129.045 7.76H128.085C128 7.39733 127.957 6.97067 127.957 6.48C127.957 5.968 128 5.54133 128.085 5.2H130.645C130.73 5.54133 130.773 5.968 130.773 6.48C130.773 6.97067 130.73 7.39733 130.645 7.76H131.605C131.69 8.10133 131.733 8.528 131.733 9.04C131.733 9.53067 131.69 9.95733 131.605 10.32H132.565C132.65 10.6613 132.693 11.088 132.693 11.6C132.693 12.0907 132.65 12.5173 132.565 12.88C132.65 13.2213 132.693 13.648 132.693 14.16C132.693 14.6507 132.65 15.0773 132.565 15.44H133.525C133.44 15.0773 133.397 14.6507 133.397 14.16C133.397 13.648 133.44 13.2213 133.525 12.88H134.165C134.08 12.5173 134.037 12.0907 134.037 11.6C134.037 11.088 134.08 10.6613 134.165 10.32H135.125C135.04 9.95733 134.997 9.53067 134.997 9.04C134.997 8.528 135.04 8.10133 135.125 7.76H136.085C136 7.39733 135.957 6.97067 135.957 6.48C135.957 5.968 136 5.54133 136.085 5.2H138.645C138.73 5.54133 138.773 5.968 138.773 6.48ZM150.946 14.16C150.946 14.6507 150.903 15.0773 150.818 15.44H149.538C149.623 15.7813 149.666 16.208 149.666 16.72C149.666 17.2107 149.623 17.6373 149.538 18H142.498C142.412 17.6373 142.37 17.2107 142.37 16.72C142.37 16.208 142.412 15.7813 142.498 15.44H148.258C148.172 15.0773 148.13 14.6507 148.13 14.16C148.13 13.648 148.172 13.2213 148.258 12.88H143.138C143.052 12.5173 143.01 12.0907 143.01 11.6C143.01 11.088 143.052 10.6613 143.138 10.32H141.858C141.772 9.95733 141.73 9.53067 141.73 9.04C141.73 8.528 141.772 8.10133 141.858 7.76H143.138C143.052 7.39733 143.01 6.97067 143.01 6.48C143.01 5.968 143.052 5.54133 143.138 5.2H150.178C150.263 5.54133 150.306 5.968 150.306 6.48C150.306 6.97067 150.263 7.39733 150.178 7.76H144.418C144.503 8.10133 144.546 8.528 144.546 9.04C144.546 9.53067 144.503 9.95733 144.418 10.32H149.538C149.623 10.6613 149.666 11.088 149.666 11.6C149.666 12.0907 149.623 12.5173 149.538 12.88H150.818C150.903 13.2213 150.946 13.648 150.946 14.16ZM162.99 15.44C163.075 15.7813 163.118 16.208 163.118 16.72C163.118 17.2107 163.075 17.6373 162.99 18H157.87C157.785 17.6373 157.742 17.2107 157.742 16.72C157.742 16.208 157.785 15.7813 157.87 15.44H156.59C156.505 15.0773 156.462 14.6507 156.462 14.16C156.462 13.648 156.505 13.2213 156.59 12.88C156.505 12.5173 156.462 12.0907 156.462 11.6C156.462 11.088 156.505 10.6613 156.59 10.32C156.505 9.95733 156.462 9.53067 156.462 9.04C156.462 8.528 156.505 8.10133 156.59 7.76H154.03C153.945 7.39733 153.902 6.97067 153.902 6.48C153.902 5.968 153.945 5.54133 154.03 5.2H156.59C156.505 4.83733 156.462 4.41067 156.462 3.92C156.462 3.408 156.505 2.98133 156.59 2.64C156.505 2.27733 156.462 1.85067 156.462 1.36C156.462 0.847999 156.505 0.421333 156.59 0.0799999H159.15C159.235 0.421333 159.278 0.847999 159.278 1.36C159.278 1.85067 159.235 2.27733 159.15 2.64C159.235 2.98133 159.278 3.408 159.278 3.92C159.278 4.41067 159.235 4.83733 159.15 5.2H162.99C163.075 5.54133 163.118 5.968 163.118 6.48C163.118 6.97067 163.075 7.39733 162.99 7.76H159.15C159.235 8.10133 159.278 8.528 159.278 9.04C159.278 9.53067 159.235 9.95733 159.15 10.32C159.235 10.6613 159.278 11.088 159.278 11.6C159.278 12.0907 159.235 12.5173 159.15 12.88C159.235 13.2213 159.278 13.648 159.278 14.16C159.278 14.6507 159.235 15.0773 159.15 15.44H162.99ZM177.211 9.04C177.211 9.53067 177.168 9.95733 177.083 10.32C177.168 10.6613 177.211 11.088 177.211 11.6C177.211 12.0907 177.168 12.5173 177.083 12.88H170.363C170.448 13.2213 170.491 13.648 170.491 14.16C170.491 14.6507 170.448 15.0773 170.363 15.44H175.803C175.888 15.7813 175.931 16.208 175.931 16.72C175.931 17.2107 175.888 17.6373 175.803 18H169.403C169.317 17.6373 169.275 17.2107 169.275 16.72C169.275 16.208 169.317 15.7813 169.403 15.44H167.803C167.717 15.0773 167.674 14.6507 167.674 14.16C167.674 13.648 167.717 13.2213 167.803 12.88H166.843C166.757 12.5173 166.715 12.0907 166.715 11.6C166.715 11.088 166.757 10.6613 166.843 10.32H167.803C167.717 9.95733 167.674 9.53067 167.674 9.04C167.674 8.528 167.717 8.10133 167.803 7.76H169.403C169.317 7.39733 169.275 6.97067 169.275 6.48C169.275 5.968 169.317 5.54133 169.403 5.2H175.803C175.888 5.54133 175.931 5.968 175.931 6.48C175.931 6.97067 175.888 7.39733 175.803 7.76H177.083C177.168 8.10133 177.211 8.528 177.211 9.04ZM174.523 10.32C174.437 9.95733 174.395 9.53067 174.395 9.04C174.395 8.528 174.437 8.10133 174.523 7.76H170.363C170.448 8.10133 170.491 8.528 170.491 9.04C170.491 9.53067 170.448 9.95733 170.363 10.32H174.523ZM181.383 6.48C181.383 6.97067 181.34 7.39733 181.255 7.76H182.215C182.3 8.10133 182.343 8.528 182.343 9.04C182.343 9.53067 182.3 9.95733 182.215 10.32C182.3 10.6613 182.343 11.088 182.343 11.6C182.343 12.0907 182.3 12.5173 182.215 12.88C182.3 13.2213 182.343 13.648 182.343 14.16C182.343 14.6507 182.3 15.0773 182.215 15.44C182.3 15.7813 182.343 16.208 182.343 16.72C182.343 17.2107 182.3 17.6373 182.215 18H179.655C179.57 17.6373 179.527 17.2107 179.527 16.72C179.527 16.208 179.57 15.7813 179.655 15.44C179.57 15.0773 179.527 14.6507 179.527 14.16C179.527 13.648 179.57 13.2213 179.655 12.88C179.57 12.5173 179.527 12.0907 179.527 11.6C179.527 11.088 179.57 10.6613 179.655 10.32C179.57 9.95733 179.527 9.53067 179.527 9.04C179.527 8.528 179.57 8.10133 179.655 7.76C179.57 7.39733 179.527 6.97067 179.527 6.48C179.527 5.968 179.57 5.54133 179.655 5.2H181.255C181.34 5.54133 181.383 5.968 181.383 6.48ZM184.903 6.48C184.903 6.97067 184.86 7.39733 184.775 7.76H185.735C185.82 8.10133 185.863 8.528 185.863 9.04C185.863 9.53067 185.82 9.95733 185.735 10.32C185.82 10.6613 185.863 11.088 185.863 11.6C185.863 12.0907 185.82 12.5173 185.735 12.88C185.82 13.2213 185.863 13.648 185.863 14.16C185.863 14.6507 185.82 15.0773 185.735 15.44C185.82 15.7813 185.863 16.208 185.863 16.72C185.863 17.2107 185.82 17.6373 185.735 18H183.815C183.73 17.6373 183.687 17.2107 183.687 16.72C183.687 16.208 183.73 15.7813 183.815 15.44C183.73 15.0773 183.687 14.6507 183.687 14.16C183.687 13.648 183.73 13.2213 183.815 12.88C183.73 12.5173 183.687 12.0907 183.687 11.6C183.687 11.088 183.73 10.6613 183.815 10.32C183.73 9.95733 183.687 9.53067 183.687 9.04C183.687 8.528 183.73 8.10133 183.815 7.76H182.215C182.13 7.39733 182.087 6.97067 182.087 6.48C182.087 5.968 182.13 5.54133 182.215 5.2H184.775C184.86 5.54133 184.903 5.968 184.903 6.48ZM189.895 10.32C189.98 10.6613 190.023 11.088 190.023 11.6C190.023 12.0907 189.98 12.5173 189.895 12.88C189.98 13.2213 190.023 13.648 190.023 14.16C190.023 14.6507 189.98 15.0773 189.895 15.44C189.98 15.7813 190.023 16.208 190.023 16.72C190.023 17.2107 189.98 17.6373 189.895 18H187.335C187.25 17.6373 187.207 17.2107 187.207 16.72C187.207 16.208 187.25 15.7813 187.335 15.44C187.25 15.0773 187.207 14.6507 187.207 14.16C187.207 13.648 187.25 13.2213 187.335 12.88C187.25 12.5173 187.207 12.0907 187.207 11.6C187.207 11.088 187.25 10.6613 187.335 10.32C187.25 9.95733 187.207 9.53067 187.207 9.04C187.207 8.528 187.25 8.10133 187.335 7.76H185.735C185.65 7.39733 185.607 6.97067 185.607 6.48C185.607 5.968 185.65 5.54133 185.735 5.2H188.615C188.7 5.54133 188.743 5.968 188.743 6.48C188.743 6.97067 188.7 7.39733 188.615 7.76H189.895C189.98 8.10133 190.023 8.528 190.023 9.04C190.023 9.53067 189.98 9.95733 189.895 10.32ZM202.196 14.16C202.196 14.6507 202.153 15.0773 202.068 15.44H200.788C200.873 15.7813 200.916 16.208 200.916 16.72C200.916 17.2107 200.873 17.6373 200.788 18H193.748C193.662 17.6373 193.62 17.2107 193.62 16.72C193.62 16.208 193.662 15.7813 193.748 15.44H199.508C199.422 15.0773 199.38 14.6507 199.38 14.16C199.38 13.648 199.422 13.2213 199.508 12.88H194.388C194.302 12.5173 194.26 12.0907 194.26 11.6C194.26 11.088 194.302 10.6613 194.388 10.32H193.108C193.022 9.95733 192.98 9.53067 192.98 9.04C192.98 8.528 193.022 8.10133 193.108 7.76H194.388C194.302 7.39733 194.26 6.97067 194.26 6.48C194.26 5.968 194.302 5.54133 194.388 5.2H201.428C201.513 5.54133 201.556 5.968 201.556 6.48C201.556 6.97067 201.513 7.39733 201.428 7.76H195.668C195.753 8.10133 195.796 8.528 195.796 9.04C195.796 9.53067 195.753 9.95733 195.668 10.32H200.788C200.873 10.6613 200.916 11.088 200.916 11.6C200.916 12.0907 200.873 12.5173 200.788 12.88H202.068C202.153 13.2213 202.196 13.648 202.196 14.16ZM212.128 14.16C212.128 14.6507 212.085 15.0773 212 15.44C212.085 15.7813 212.128 16.208 212.128 16.72C212.128 17.2107 212.085 17.6373 212 18H208.8C208.715 17.6373 208.672 17.2107 208.672 16.72C208.672 16.208 208.715 15.7813 208.8 15.44C208.715 15.0773 208.672 14.6507 208.672 14.16C208.672 13.648 208.715 13.2213 208.8 12.88H212C212.085 13.2213 212.128 13.648 212.128 14.16ZM9.24 47.44C9.32533 47.7813 9.368 48.208 9.368 48.72C9.368 49.2107 9.32533 49.6373 9.24 50H1.56C1.47467 49.6373 1.432 49.2107 1.432 48.72C1.432 48.208 1.47467 47.7813 1.56 47.44H4.12C4.03467 47.0773 3.992 46.6507 3.992 46.16C3.992 45.648 4.03467 45.2213 4.12 44.88C4.03467 44.5173 3.992 44.0907 3.992 43.6C3.992 43.088 4.03467 42.6613 4.12 42.32C4.03467 41.9573 3.992 41.5307 3.992 41.04C3.992 40.528 4.03467 40.1013 4.12 39.76C4.03467 39.3973 3.992 38.9707 3.992 38.48C3.992 37.968 4.03467 37.5413 4.12 37.2C4.03467 36.8373 3.992 36.4107 3.992 35.92C3.992 35.408 4.03467 34.9813 4.12 34.64H2.2C2.11467 34.2773 2.072 33.8507 2.072 33.36C2.072 32.848 2.11467 32.4213 2.2 32.08H6.68C6.76533 32.4213 6.808 32.848 6.808 33.36C6.808 33.8507 6.76533 34.2773 6.68 34.64C6.76533 34.9813 6.808 35.408 6.808 35.92C6.808 36.4107 6.76533 36.8373 6.68 37.2C6.76533 37.5413 6.808 37.968 6.808 38.48C6.808 38.9707 6.76533 39.3973 6.68 39.76C6.76533 40.1013 6.808 40.528 6.808 41.04C6.808 41.5307 6.76533 41.9573 6.68 42.32C6.76533 42.6613 6.808 43.088 6.808 43.6C6.808 44.0907 6.76533 44.5173 6.68 44.88C6.76533 45.2213 6.808 45.648 6.808 46.16C6.808 46.6507 6.76533 47.0773 6.68 47.44H9.24ZM23.4605 41.04C23.4605 41.5307 23.4178 41.9573 23.3325 42.32C23.4178 42.6613 23.4605 43.088 23.4605 43.6C23.4605 44.0907 23.4178 44.5173 23.3325 44.88H16.6125C16.6978 45.2213 16.7405 45.648 16.7405 46.16C16.7405 46.6507 16.6978 47.0773 16.6125 47.44H22.0525C22.1378 47.7813 22.1805 48.208 22.1805 48.72C22.1805 49.2107 22.1378 49.6373 22.0525 50H15.6525C15.5672 49.6373 15.5245 49.2107 15.5245 48.72C15.5245 48.208 15.5672 47.7813 15.6525 47.44H14.0525C13.9672 47.0773 13.9245 46.6507 13.9245 46.16C13.9245 45.648 13.9672 45.2213 14.0525 44.88H13.0925C13.0072 44.5173 12.9645 44.0907 12.9645 43.6C12.9645 43.088 13.0072 42.6613 13.0925 42.32H14.0525C13.9672 41.9573 13.9245 41.5307 13.9245 41.04C13.9245 40.528 13.9672 40.1013 14.0525 39.76H15.6525C15.5672 39.3973 15.5245 38.9707 15.5245 38.48C15.5245 37.968 15.5672 37.5413 15.6525 37.2H22.0525C22.1378 37.5413 22.1805 37.968 22.1805 38.48C22.1805 38.9707 22.1378 39.3973 22.0525 39.76H23.3325C23.4178 40.1013 23.4605 40.528 23.4605 41.04ZM20.7725 42.32C20.6872 41.9573 20.6445 41.5307 20.6445 41.04C20.6445 40.528 20.6872 40.1013 20.7725 39.76H16.6125C16.6978 40.1013 16.7405 40.528 16.7405 41.04C16.7405 41.5307 16.6978 41.9573 16.6125 42.32H20.7725ZM36.145 47.44C36.2303 47.7813 36.273 48.208 36.273 48.72C36.273 49.2107 36.2303 49.6373 36.145 50H33.585C33.4997 49.6373 33.457 49.2107 33.457 48.72C33.457 48.208 33.4997 47.7813 33.585 47.44H32.305C32.2197 47.0773 32.177 46.6507 32.177 46.16C32.177 45.648 32.2197 45.2213 32.305 44.88H28.465C28.5503 45.2213 28.593 45.648 28.593 46.16C28.593 46.6507 28.5503 47.0773 28.465 47.44H32.305C32.3903 47.7813 32.433 48.208 32.433 48.72C32.433 49.2107 32.3903 49.6373 32.305 50H27.185C27.0997 49.6373 27.057 49.2107 27.057 48.72C27.057 48.208 27.0997 47.7813 27.185 47.44H25.905C25.8197 47.0773 25.777 46.6507 25.777 46.16C25.777 45.648 25.8197 45.2213 25.905 44.88H27.185C27.0997 44.5173 27.057 44.0907 27.057 43.6C27.057 43.088 27.0997 42.6613 27.185 42.32H32.305C32.2197 41.9573 32.177 41.5307 32.177 41.04C32.177 40.528 32.2197 40.1013 32.305 39.76H27.825C27.7397 39.3973 27.697 38.9707 27.697 38.48C27.697 37.968 27.7397 37.5413 27.825 37.2H33.585C33.6703 37.5413 33.713 37.968 33.713 38.48C33.713 38.9707 33.6703 39.3973 33.585 39.76H34.865C34.9503 40.1013 34.993 40.528 34.993 41.04C34.993 41.5307 34.9503 41.9573 34.865 42.32C34.9503 42.6613 34.993 43.088 34.993 43.6C34.993 44.0907 34.9503 44.5173 34.865 44.88C34.9503 45.2213 34.993 45.648 34.993 46.16C34.993 46.6507 34.9503 47.0773 34.865 47.44H36.145ZM48.9575 39.76C49.0428 40.1013 49.0855 40.528 49.0855 41.04C49.0855 41.5307 49.0428 41.9573 48.9575 42.32H46.3975C46.3122 41.9573 46.2695 41.5307 46.2695 41.04C46.2695 40.528 46.3122 40.1013 46.3975 39.76H44.1575C44.2428 40.1013 44.2855 40.528 44.2855 41.04C44.2855 41.5307 44.2428 41.9573 44.1575 42.32H43.1975C43.2828 42.6613 43.3255 43.088 43.3255 43.6C43.3255 44.0907 43.2828 44.5173 43.1975 44.88C43.2828 45.2213 43.3255 45.648 43.3255 46.16C43.3255 46.6507 43.2828 47.0773 43.1975 47.44H45.1175C45.2028 47.7813 45.2455 48.208 45.2455 48.72C45.2455 49.2107 45.2028 49.6373 45.1175 50H38.7175C38.6322 49.6373 38.5895 49.2107 38.5895 48.72C38.5895 48.208 38.6322 47.7813 38.7175 47.44H40.6375C40.5522 47.0773 40.5095 46.6507 40.5095 46.16C40.5095 45.648 40.5522 45.2213 40.6375 44.88C40.5522 44.5173 40.5095 44.0907 40.5095 43.6C40.5095 43.088 40.5522 42.6613 40.6375 42.32C40.5522 41.9573 40.5095 41.5307 40.5095 41.04C40.5095 40.528 40.5522 40.1013 40.6375 39.76H38.7175C38.6322 39.3973 38.5895 38.9707 38.5895 38.48C38.5895 37.968 38.6322 37.5413 38.7175 37.2H41.9175C42.0028 37.5413 42.0455 37.968 42.0455 38.48C42.0455 38.9707 42.0028 39.3973 41.9175 39.76H43.1975C43.1122 39.3973 43.0695 38.9707 43.0695 38.48C43.0695 37.968 43.1122 37.5413 43.1975 37.2H47.9975C48.0828 37.5413 48.1255 37.968 48.1255 38.48C48.1255 38.9707 48.0828 39.3973 47.9975 39.76H48.9575ZM53.898 38.48C53.898 38.9707 53.8553 39.3973 53.77 39.76H55.05C55.1353 40.1013 55.178 40.528 55.178 41.04C55.178 41.5307 55.1353 41.9573 55.05 42.32H54.09C54.1753 42.6613 54.218 43.088 54.218 43.6C54.218 44.0907 54.1753 44.5173 54.09 44.88C54.1753 45.2213 54.218 45.648 54.218 46.16C54.218 46.6507 54.1753 47.0773 54.09 47.44C54.1753 47.7813 54.218 48.208 54.218 48.72C54.218 49.2107 54.1753 49.6373 54.09 50H51.53C51.4447 49.6373 51.402 49.2107 51.402 48.72C51.402 48.208 51.4447 47.7813 51.53 47.44C51.4447 47.0773 51.402 46.6507 51.402 46.16C51.402 45.648 51.4447 45.2213 51.53 44.88C51.4447 44.5173 51.402 44.0907 51.402 43.6C51.402 43.088 51.4447 42.6613 51.53 42.32C51.4447 41.9573 51.402 41.5307 51.402 41.04C51.402 40.528 51.4447 40.1013 51.53 39.76C51.4447 39.3973 51.402 38.9707 51.402 38.48C51.402 37.968 51.4447 37.5413 51.53 37.2H53.77C53.8553 37.5413 53.898 37.968 53.898 38.48ZM61.77 42.32C61.8553 42.6613 61.898 43.088 61.898 43.6C61.898 44.0907 61.8553 44.5173 61.77 44.88C61.8553 45.2213 61.898 45.648 61.898 46.16C61.898 46.6507 61.8553 47.0773 61.77 47.44C61.8553 47.7813 61.898 48.208 61.898 48.72C61.898 49.2107 61.8553 49.6373 61.77 50H59.21C59.1247 49.6373 59.082 49.2107 59.082 48.72C59.082 48.208 59.1247 47.7813 59.21 47.44C59.1247 47.0773 59.082 46.6507 59.082 46.16C59.082 45.648 59.1247 45.2213 59.21 44.88C59.1247 44.5173 59.082 44.0907 59.082 43.6C59.082 43.088 59.1247 42.6613 59.21 42.32C59.1247 41.9573 59.082 41.5307 59.082 41.04C59.082 40.528 59.1247 40.1013 59.21 39.76H55.05C54.9647 39.3973 54.922 38.9707 54.922 38.48C54.922 37.968 54.9647 37.5413 55.05 37.2H60.17C60.2553 37.5413 60.298 37.968 60.298 38.48C60.298 38.9707 60.2553 39.3973 60.17 39.76H61.77C61.8553 40.1013 61.898 40.528 61.898 41.04C61.898 41.5307 61.8553 41.9573 61.77 42.32ZM68.1825 34.64C68.0972 34.2773 68.0545 33.8507 68.0545 33.36C68.0545 32.848 68.0972 32.4213 68.1825 32.08H70.7425C70.8278 32.4213 70.8705 32.848 70.8705 33.36C70.8705 33.8507 70.8278 34.2773 70.7425 34.64H68.1825ZM73.3025 47.44C73.3878 47.7813 73.4305 48.208 73.4305 48.72C73.4305 49.2107 73.3878 49.6373 73.3025 50H65.6225C65.5372 49.6373 65.4945 49.2107 65.4945 48.72C65.4945 48.208 65.5372 47.7813 65.6225 47.44H68.1825C68.0972 47.0773 68.0545 46.6507 68.0545 46.16C68.0545 45.648 68.0972 45.2213 68.1825 44.88C68.0972 44.5173 68.0545 44.0907 68.0545 43.6C68.0545 43.088 68.0972 42.6613 68.1825 42.32C68.0972 41.9573 68.0545 41.5307 68.0545 41.04C68.0545 40.528 68.0972 40.1013 68.1825 39.76H66.2625C66.1772 39.3973 66.1345 38.9707 66.1345 38.48C66.1345 37.968 66.1772 37.5413 66.2625 37.2H70.7425C70.8278 37.5413 70.8705 37.968 70.8705 38.48C70.8705 38.9707 70.8278 39.3973 70.7425 39.76C70.8278 40.1013 70.8705 40.528 70.8705 41.04C70.8705 41.5307 70.8278 41.9573 70.7425 42.32C70.8278 42.6613 70.8705 43.088 70.8705 43.6C70.8705 44.0907 70.8278 44.5173 70.7425 44.88C70.8278 45.2213 70.8705 45.648 70.8705 46.16C70.8705 46.6507 70.8278 47.0773 70.7425 47.44H73.3025ZM79.523 38.48C79.523 38.9707 79.4803 39.3973 79.395 39.76H80.675C80.7603 40.1013 80.803 40.528 80.803 41.04C80.803 41.5307 80.7603 41.9573 80.675 42.32H79.715C79.8003 42.6613 79.843 43.088 79.843 43.6C79.843 44.0907 79.8003 44.5173 79.715 44.88C79.8003 45.2213 79.843 45.648 79.843 46.16C79.843 46.6507 79.8003 47.0773 79.715 47.44C79.8003 47.7813 79.843 48.208 79.843 48.72C79.843 49.2107 79.8003 49.6373 79.715 50H77.155C77.0697 49.6373 77.027 49.2107 77.027 48.72C77.027 48.208 77.0697 47.7813 77.155 47.44C77.0697 47.0773 77.027 46.6507 77.027 46.16C77.027 45.648 77.0697 45.2213 77.155 44.88C77.0697 44.5173 77.027 44.0907 77.027 43.6C77.027 43.088 77.0697 42.6613 77.155 42.32C77.0697 41.9573 77.027 41.5307 77.027 41.04C77.027 40.528 77.0697 40.1013 77.155 39.76C77.0697 39.3973 77.027 38.9707 77.027 38.48C77.027 37.968 77.0697 37.5413 77.155 37.2H79.395C79.4803 37.5413 79.523 37.968 79.523 38.48ZM87.395 42.32C87.4803 42.6613 87.523 43.088 87.523 43.6C87.523 44.0907 87.4803 44.5173 87.395 44.88C87.4803 45.2213 87.523 45.648 87.523 46.16C87.523 46.6507 87.4803 47.0773 87.395 47.44C87.4803 47.7813 87.523 48.208 87.523 48.72C87.523 49.2107 87.4803 49.6373 87.395 50H84.835C84.7497 49.6373 84.707 49.2107 84.707 48.72C84.707 48.208 84.7497 47.7813 84.835 47.44C84.7497 47.0773 84.707 46.6507 84.707 46.16C84.707 45.648 84.7497 45.2213 84.835 44.88C84.7497 44.5173 84.707 44.0907 84.707 43.6C84.707 43.088 84.7497 42.6613 84.835 42.32C84.7497 41.9573 84.707 41.5307 84.707 41.04C84.707 40.528 84.7497 40.1013 84.835 39.76H80.675C80.5897 39.3973 80.547 38.9707 80.547 38.48C80.547 37.968 80.5897 37.5413 80.675 37.2H85.795C85.8803 37.5413 85.923 37.968 85.923 38.48C85.923 38.9707 85.8803 39.3973 85.795 39.76H87.395C87.4803 40.1013 87.523 40.528 87.523 41.04C87.523 41.5307 87.4803 41.9573 87.395 42.32ZM100.208 39.76C100.293 40.1013 100.336 40.528 100.336 41.04C100.336 41.5307 100.293 41.9573 100.208 42.32C100.293 42.6613 100.336 43.088 100.336 43.6C100.336 44.0907 100.293 44.5173 100.208 44.88C100.293 45.2213 100.336 45.648 100.336 46.16C100.336 46.6507 100.293 47.0773 100.208 47.44C100.293 47.7813 100.336 48.208 100.336 48.72C100.336 49.2107 100.293 49.6373 100.208 50H98.9275C99.0128 50.3413 99.0555 50.768 99.0555 51.28C99.0555 51.7707 99.0128 52.1973 98.9275 52.56H97.6475C97.7328 52.9013 97.7755 53.328 97.7755 53.84C97.7755 54.3307 97.7328 54.7573 97.6475 55.12H92.5275C92.4422 54.7573 92.3995 54.3307 92.3995 53.84C92.3995 53.328 92.4422 52.9013 92.5275 52.56H96.3675C96.2822 52.1973 96.2395 51.7707 96.2395 51.28C96.2395 50.768 96.2822 50.3413 96.3675 50H97.6475C97.5622 49.6373 97.5195 49.2107 97.5195 48.72C97.5195 48.208 97.5622 47.7813 97.6475 47.44H96.3675C96.2822 47.0773 96.2395 46.6507 96.2395 46.16C96.2395 45.648 96.2822 45.2213 96.3675 44.88H97.6475C97.5622 44.5173 97.5195 44.0907 97.5195 43.6C97.5195 43.088 97.5622 42.6613 97.6475 42.32C97.5622 41.9573 97.5195 41.5307 97.5195 41.04C97.5195 40.528 97.5622 40.1013 97.6475 39.76H93.4875C93.5728 40.1013 93.6155 40.528 93.6155 41.04C93.6155 41.5307 93.5728 41.9573 93.4875 42.32H92.5275C92.6128 42.6613 92.6555 43.088 92.6555 43.6C92.6555 44.0907 92.6128 44.5173 92.5275 44.88H93.4875C93.5728 45.2213 93.6155 45.648 93.6155 46.16C93.6155 46.6507 93.5728 47.0773 93.4875 47.44H96.3675C96.4528 47.7813 96.4955 48.208 96.4955 48.72C96.4955 49.2107 96.4528 49.6373 96.3675 50H92.5275C92.4422 49.6373 92.3995 49.2107 92.3995 48.72C92.3995 48.208 92.4422 47.7813 92.5275 47.44H90.9275C90.8422 47.0773 90.7995 46.6507 90.7995 46.16C90.7995 45.648 90.8422 45.2213 90.9275 44.88H89.9675C89.8822 44.5173 89.8395 44.0907 89.8395 43.6C89.8395 43.088 89.8822 42.6613 89.9675 42.32H90.9275C90.8422 41.9573 90.7995 41.5307 90.7995 41.04C90.7995 40.528 90.8422 40.1013 90.9275 39.76H92.5275C92.4422 39.3973 92.3995 38.9707 92.3995 38.48C92.3995 37.968 92.4422 37.5413 92.5275 37.2H100.208C100.293 37.5413 100.336 37.968 100.336 38.48C100.336 38.9707 100.293 39.3973 100.208 39.76ZM125.961 46.16C125.961 46.6507 125.918 47.0773 125.833 47.44C125.918 47.7813 125.961 48.208 125.961 48.72C125.961 49.2107 125.918 49.6373 125.833 50H123.273C123.187 49.6373 123.145 49.2107 123.145 48.72C123.145 48.208 123.187 47.7813 123.273 47.44C123.187 47.0773 123.145 46.6507 123.145 46.16C123.145 45.648 123.187 45.2213 123.273 44.88H118.153C118.238 45.2213 118.281 45.648 118.281 46.16C118.281 46.6507 118.238 47.0773 118.153 47.44C118.238 47.7813 118.281 48.208 118.281 48.72C118.281 49.2107 118.238 49.6373 118.153 50H115.593C115.507 49.6373 115.465 49.2107 115.465 48.72C115.465 48.208 115.507 47.7813 115.593 47.44C115.507 47.0773 115.465 46.6507 115.465 46.16C115.465 45.648 115.507 45.2213 115.593 44.88H116.553C116.467 44.5173 116.424 44.0907 116.424 43.6C116.424 43.088 116.467 42.6613 116.553 42.32C116.467 41.9573 116.424 41.5307 116.424 41.04C116.424 40.528 116.467 40.1013 116.553 39.76H117.193C117.107 39.3973 117.065 38.9707 117.065 38.48C117.065 37.968 117.107 37.5413 117.193 37.2H118.153C118.067 36.8373 118.025 36.4107 118.025 35.92C118.025 35.408 118.067 34.9813 118.153 34.64H118.793C118.707 34.2773 118.665 33.8507 118.665 33.36C118.665 32.848 118.707 32.4213 118.793 32.08H122.633C122.718 32.4213 122.76 32.848 122.76 33.36C122.76 33.8507 122.718 34.2773 122.633 34.64H123.273C123.358 34.9813 123.401 35.408 123.401 35.92C123.401 36.4107 123.358 36.8373 123.273 37.2H124.233C124.318 37.5413 124.361 37.968 124.361 38.48C124.361 38.9707 124.318 39.3973 124.233 39.76H124.873C124.958 40.1013 125.001 40.528 125.001 41.04C125.001 41.5307 124.958 41.9573 124.873 42.32C124.958 42.6613 125.001 43.088 125.001 43.6C125.001 44.0907 124.958 44.5173 124.873 44.88H125.833C125.918 45.2213 125.961 45.648 125.961 46.16ZM122.312 42.32C122.227 41.9573 122.185 41.5307 122.185 41.04C122.185 40.528 122.227 40.1013 122.312 39.76H121.673C121.587 39.3973 121.545 38.9707 121.545 38.48C121.545 37.968 121.587 37.5413 121.673 37.2H119.753C119.838 37.5413 119.881 37.968 119.881 38.48C119.881 38.9707 119.838 39.3973 119.753 39.76H119.113C119.198 40.1013 119.241 40.528 119.241 41.04C119.241 41.5307 119.198 41.9573 119.113 42.32H122.312ZM136.725 47.44C136.81 47.7813 136.853 48.208 136.853 48.72C136.853 49.2107 136.81 49.6373 136.725 50H130.325C130.24 49.6373 130.197 49.2107 130.197 48.72C130.197 48.208 130.24 47.7813 130.325 47.44H132.245C132.16 47.0773 132.117 46.6507 132.117 46.16C132.117 45.648 132.16 45.2213 132.245 44.88C132.16 44.5173 132.117 44.0907 132.117 43.6C132.117 43.088 132.16 42.6613 132.245 42.32C132.16 41.9573 132.117 41.5307 132.117 41.04C132.117 40.528 132.16 40.1013 132.245 39.76C132.16 39.3973 132.117 38.9707 132.117 38.48C132.117 37.968 132.16 37.5413 132.245 37.2C132.16 36.8373 132.117 36.4107 132.117 35.92C132.117 35.408 132.16 34.9813 132.245 34.64H130.325C130.24 34.2773 130.197 33.8507 130.197 33.36C130.197 32.848 130.24 32.4213 130.325 32.08H136.725C136.81 32.4213 136.853 32.848 136.853 33.36C136.853 33.8507 136.81 34.2773 136.725 34.64H134.805C134.89 34.9813 134.933 35.408 134.933 35.92C134.933 36.4107 134.89 36.8373 134.805 37.2C134.89 37.5413 134.933 37.968 134.933 38.48C134.933 38.9707 134.89 39.3973 134.805 39.76C134.89 40.1013 134.933 40.528 134.933 41.04C134.933 41.5307 134.89 41.9573 134.805 42.32C134.89 42.6613 134.933 43.088 134.933 43.6C134.933 44.0907 134.89 44.5173 134.805 44.88C134.89 45.2213 134.933 45.648 134.933 46.16C134.933 46.6507 134.89 47.0773 134.805 47.44H136.725ZM148.066 46.16C148.066 46.6507 148.023 47.0773 147.938 47.44C148.023 47.7813 148.066 48.208 148.066 48.72C148.066 49.2107 148.023 49.6373 147.938 50H144.738C144.652 49.6373 144.61 49.2107 144.61 48.72C144.61 48.208 144.652 47.7813 144.738 47.44C144.652 47.0773 144.61 46.6507 144.61 46.16C144.61 45.648 144.652 45.2213 144.738 44.88H147.938C148.023 45.2213 148.066 45.648 148.066 46.16ZM10.52 79.44C10.6053 79.7813 10.648 80.208 10.648 80.72C10.648 81.2107 10.6053 81.6373 10.52 82H7.96C7.87467 81.6373 7.832 81.2107 7.832 80.72C7.832 80.208 7.87467 79.7813 7.96 79.44H6.68C6.59467 79.0773 6.552 78.6507 6.552 78.16C6.552 77.648 6.59467 77.2213 6.68 76.88H2.84C2.92533 77.2213 2.968 77.648 2.968 78.16C2.968 78.6507 2.92533 79.0773 2.84 79.44H6.68C6.76533 79.7813 6.808 80.208 6.808 80.72C6.808 81.2107 6.76533 81.6373 6.68 82H1.56C1.47467 81.6373 1.432 81.2107 1.432 80.72C1.432 80.208 1.47467 79.7813 1.56 79.44H0.28C0.194667 79.0773 0.152 78.6507 0.152 78.16C0.152 77.648 0.194667 77.2213 0.28 76.88H1.56C1.47467 76.5173 1.432 76.0907 1.432 75.6C1.432 75.088 1.47467 74.6613 1.56 74.32H6.68C6.59467 73.9573 6.552 73.5307 6.552 73.04C6.552 72.528 6.59467 72.1013 6.68 71.76H2.2C2.11467 71.3973 2.072 70.9707 2.072 70.48C2.072 69.968 2.11467 69.5413 2.2 69.2H7.96C8.04533 69.5413 8.088 69.968 8.088 70.48C8.088 70.9707 8.04533 71.3973 7.96 71.76H9.24C9.32533 72.1013 9.368 72.528 9.368 73.04C9.368 73.5307 9.32533 73.9573 9.24 74.32C9.32533 74.6613 9.368 75.088 9.368 75.6C9.368 76.0907 9.32533 76.5173 9.24 76.88C9.32533 77.2213 9.368 77.648 9.368 78.16C9.368 78.6507 9.32533 79.0773 9.24 79.44H10.52ZM15.4605 70.48C15.4605 70.9707 15.4178 71.3973 15.3325 71.76H16.6125C16.6978 72.1013 16.7405 72.528 16.7405 73.04C16.7405 73.5307 16.6978 73.9573 16.6125 74.32H15.6525C15.7378 74.6613 15.7805 75.088 15.7805 75.6C15.7805 76.0907 15.7378 76.5173 15.6525 76.88C15.7378 77.2213 15.7805 77.648 15.7805 78.16C15.7805 78.6507 15.7378 79.0773 15.6525 79.44C15.7378 79.7813 15.7805 80.208 15.7805 80.72C15.7805 81.2107 15.7378 81.6373 15.6525 82H13.0925C13.0072 81.6373 12.9645 81.2107 12.9645 80.72C12.9645 80.208 13.0072 79.7813 13.0925 79.44C13.0072 79.0773 12.9645 78.6507 12.9645 78.16C12.9645 77.648 13.0072 77.2213 13.0925 76.88C13.0072 76.5173 12.9645 76.0907 12.9645 75.6C12.9645 75.088 13.0072 74.6613 13.0925 74.32C13.0072 73.9573 12.9645 73.5307 12.9645 73.04C12.9645 72.528 13.0072 72.1013 13.0925 71.76C13.0072 71.3973 12.9645 70.9707 12.9645 70.48C12.9645 69.968 13.0072 69.5413 13.0925 69.2H15.3325C15.4178 69.5413 15.4605 69.968 15.4605 70.48ZM23.3325 74.32C23.4178 74.6613 23.4605 75.088 23.4605 75.6C23.4605 76.0907 23.4178 76.5173 23.3325 76.88C23.4178 77.2213 23.4605 77.648 23.4605 78.16C23.4605 78.6507 23.4178 79.0773 23.3325 79.44C23.4178 79.7813 23.4605 80.208 23.4605 80.72C23.4605 81.2107 23.4178 81.6373 23.3325 82H20.7725C20.6872 81.6373 20.6445 81.2107 20.6445 80.72C20.6445 80.208 20.6872 79.7813 20.7725 79.44C20.6872 79.0773 20.6445 78.6507 20.6445 78.16C20.6445 77.648 20.6872 77.2213 20.7725 76.88C20.6872 76.5173 20.6445 76.0907 20.6445 75.6C20.6445 75.088 20.6872 74.6613 20.7725 74.32C20.6872 73.9573 20.6445 73.5307 20.6445 73.04C20.6445 72.528 20.6872 72.1013 20.7725 71.76H16.6125C16.5272 71.3973 16.4845 70.9707 16.4845 70.48C16.4845 69.968 16.5272 69.5413 16.6125 69.2H21.7325C21.8178 69.5413 21.8605 69.968 21.8605 70.48C21.8605 70.9707 21.8178 71.3973 21.7325 71.76H23.3325C23.4178 72.1013 23.4605 72.528 23.4605 73.04C23.4605 73.5307 23.4178 73.9573 23.3325 74.32ZM36.145 66.64C36.2303 66.9813 36.273 67.408 36.273 67.92C36.273 68.4107 36.2303 68.8373 36.145 69.2C36.2303 69.5413 36.273 69.968 36.273 70.48C36.273 70.9707 36.2303 71.3973 36.145 71.76C36.2303 72.1013 36.273 72.528 36.273 73.04C36.273 73.5307 36.2303 73.9573 36.145 74.32C36.2303 74.6613 36.273 75.088 36.273 75.6C36.273 76.0907 36.2303 76.5173 36.145 76.88C36.2303 77.2213 36.273 77.648 36.273 78.16C36.273 78.6507 36.2303 79.0773 36.145 79.44C36.2303 79.7813 36.273 80.208 36.273 80.72C36.273 81.2107 36.2303 81.6373 36.145 82H33.585C33.4997 81.6373 33.457 81.2107 33.457 80.72C33.457 80.208 33.4997 79.7813 33.585 79.44H32.625C32.5397 79.0773 32.497 78.6507 32.497 78.16C32.497 77.648 32.5397 77.2213 32.625 76.88H33.585C33.4997 76.5173 33.457 76.0907 33.457 75.6C33.457 75.088 33.4997 74.6613 33.585 74.32H32.625C32.5397 73.9573 32.497 73.5307 32.497 73.04C32.497 72.528 32.5397 72.1013 32.625 71.76H33.585C33.4997 71.3973 33.457 70.9707 33.457 70.48C33.457 69.968 33.4997 69.5413 33.585 69.2C33.4997 68.8373 33.457 68.4107 33.457 67.92C33.457 67.408 33.4997 66.9813 33.585 66.64C33.4997 66.2773 33.457 65.8507 33.457 65.36C33.457 64.848 33.4997 64.4213 33.585 64.08H36.145C36.2303 64.4213 36.273 64.848 36.273 65.36C36.273 65.8507 36.2303 66.2773 36.145 66.64ZM32.113 70.48C32.113 70.9707 32.0703 71.3973 31.985 71.76H28.785C28.8703 72.1013 28.913 72.528 28.913 73.04C28.913 73.5307 28.8703 73.9573 28.785 74.32H27.825C27.9103 74.6613 27.953 75.088 27.953 75.6C27.953 76.0907 27.9103 76.5173 27.825 76.88H28.785C28.8703 77.2213 28.913 77.648 28.913 78.16C28.913 78.6507 28.8703 79.0773 28.785 79.44H31.985C32.0703 79.7813 32.113 80.208 32.113 80.72C32.113 81.2107 32.0703 81.6373 31.985 82H28.465C28.3797 81.6373 28.337 81.2107 28.337 80.72C28.337 80.208 28.3797 79.7813 28.465 79.44H26.865C26.7797 79.0773 26.737 78.6507 26.737 78.16C26.737 77.648 26.7797 77.2213 26.865 76.88H25.905C25.8197 76.5173 25.777 76.0907 25.777 75.6C25.777 75.088 25.8197 74.6613 25.905 74.32H26.865C26.7797 73.9573 26.737 73.5307 26.737 73.04C26.737 72.528 26.7797 72.1013 26.865 71.76H28.465C28.3797 71.3973 28.337 70.9707 28.337 70.48C28.337 69.968 28.3797 69.5413 28.465 69.2H31.985C32.0703 69.5413 32.113 69.968 32.113 70.48ZM60.49 69.2C60.5753 69.5413 60.618 69.968 60.618 70.48C60.618 70.9707 60.5753 71.3973 60.49 71.76H56.65C56.7353 72.1013 56.778 72.528 56.778 73.04C56.778 73.5307 56.7353 73.9573 56.65 74.32C56.7353 74.6613 56.778 75.088 56.778 75.6C56.778 76.0907 56.7353 76.5173 56.65 76.88C56.7353 77.2213 56.778 77.648 56.778 78.16C56.778 78.6507 56.7353 79.0773 56.65 79.44H59.21C59.2953 79.7813 59.338 80.208 59.338 80.72C59.338 81.2107 59.2953 81.6373 59.21 82H52.81C52.7247 81.6373 52.682 81.2107 52.682 80.72C52.682 80.208 52.7247 79.7813 52.81 79.44H54.09C54.0047 79.0773 53.962 78.6507 53.962 78.16C53.962 77.648 54.0047 77.2213 54.09 76.88C54.0047 76.5173 53.962 76.0907 53.962 75.6C53.962 75.088 54.0047 74.6613 54.09 74.32C54.0047 73.9573 53.962 73.5307 53.962 73.04C53.962 72.528 54.0047 72.1013 54.09 71.76H52.81C52.7247 71.3973 52.682 70.9707 52.682 70.48C52.682 69.968 52.7247 69.5413 52.81 69.2H54.09C54.0047 68.8373 53.962 68.4107 53.962 67.92C53.962 67.408 54.0047 66.9813 54.09 66.64H55.37C55.2847 66.2773 55.242 65.8507 55.242 65.36C55.242 64.848 55.2847 64.4213 55.37 64.08H60.49C60.5753 64.4213 60.618 64.848 60.618 65.36C60.618 65.8507 60.5753 66.2773 60.49 66.64H56.65C56.7353 66.9813 56.778 67.408 56.778 67.92C56.778 68.4107 56.7353 68.8373 56.65 69.2H60.49ZM74.7105 70.48C74.7105 70.9707 74.6678 71.3973 74.5825 71.76C74.6678 72.1013 74.7105 72.528 74.7105 73.04C74.7105 73.5307 74.6678 73.9573 74.5825 74.32H73.6225C73.7078 74.6613 73.7505 75.088 73.7505 75.6C73.7505 76.0907 73.7078 76.5173 73.6225 76.88C73.7078 77.2213 73.7505 77.648 73.7505 78.16C73.7505 78.6507 73.7078 79.0773 73.6225 79.44H72.9825C73.0678 79.7813 73.1105 80.208 73.1105 80.72C73.1105 81.2107 73.0678 81.6373 72.9825 82H71.0625C70.9772 81.6373 70.9345 81.2107 70.9345 80.72C70.9345 80.208 70.9772 79.7813 71.0625 79.44H70.4225C70.3372 79.0773 70.2945 78.6507 70.2945 78.16C70.2945 77.648 70.3372 77.2213 70.4225 76.88H68.5025C68.5878 77.2213 68.6305 77.648 68.6305 78.16C68.6305 78.6507 68.5878 79.0773 68.5025 79.44H67.8625C67.9478 79.7813 67.9905 80.208 67.9905 80.72C67.9905 81.2107 67.9478 81.6373 67.8625 82H65.9425C65.8572 81.6373 65.8145 81.2107 65.8145 80.72C65.8145 80.208 65.8572 79.7813 65.9425 79.44H65.3025C65.2172 79.0773 65.1745 78.6507 65.1745 78.16C65.1745 77.648 65.2172 77.2213 65.3025 76.88C65.2172 76.5173 65.1745 76.0907 65.1745 75.6C65.1745 75.088 65.2172 74.6613 65.3025 74.32H64.3425C64.2572 73.9573 64.2145 73.5307 64.2145 73.04C64.2145 72.528 64.2572 72.1013 64.3425 71.76C64.2572 71.3973 64.2145 70.9707 64.2145 70.48C64.2145 69.968 64.2572 69.5413 64.3425 69.2H66.9025C66.9878 69.5413 67.0305 69.968 67.0305 70.48C67.0305 70.9707 66.9878 71.3973 66.9025 71.76C66.9878 72.1013 67.0305 72.528 67.0305 73.04C67.0305 73.5307 66.9878 73.9573 66.9025 74.32C66.9878 74.6613 67.0305 75.088 67.0305 75.6C67.0305 76.0907 66.9878 76.5173 66.9025 76.88H67.8625C67.7772 76.5173 67.7345 76.0907 67.7345 75.6C67.7345 75.088 67.7772 74.6613 67.8625 74.32H68.5025C68.4172 73.9573 68.3745 73.5307 68.3745 73.04C68.3745 72.528 68.4172 72.1013 68.5025 71.76C68.4172 71.3973 68.3745 70.9707 68.3745 70.48C68.3745 69.968 68.4172 69.5413 68.5025 69.2H70.4225C70.5078 69.5413 70.5505 69.968 70.5505 70.48C70.5505 70.9707 70.5078 71.3973 70.4225 71.76C70.5078 72.1013 70.5505 72.528 70.5505 73.04C70.5505 73.5307 70.5078 73.9573 70.4225 74.32H71.0625C71.1478 74.6613 71.1905 75.088 71.1905 75.6C71.1905 76.0907 71.1478 76.5173 71.0625 76.88H72.0225C71.9372 76.5173 71.8945 76.0907 71.8945 75.6C71.8945 75.088 71.9372 74.6613 72.0225 74.32C71.9372 73.9573 71.8945 73.5307 71.8945 73.04C71.8945 72.528 71.9372 72.1013 72.0225 71.76C71.9372 71.3973 71.8945 70.9707 71.8945 70.48C71.8945 69.968 71.9372 69.5413 72.0225 69.2H74.5825C74.6678 69.5413 74.7105 69.968 74.7105 70.48ZM100.336 73.04C100.336 73.5307 100.293 73.9573 100.208 74.32C100.293 74.6613 100.336 75.088 100.336 75.6C100.336 76.0907 100.293 76.5173 100.208 76.88H93.4875C93.5728 77.2213 93.6155 77.648 93.6155 78.16C93.6155 78.6507 93.5728 79.0773 93.4875 79.44H98.9275C99.0128 79.7813 99.0555 80.208 99.0555 80.72C99.0555 81.2107 99.0128 81.6373 98.9275 82H92.5275C92.4422 81.6373 92.3995 81.2107 92.3995 80.72C92.3995 80.208 92.4422 79.7813 92.5275 79.44H90.9275C90.8422 79.0773 90.7995 78.6507 90.7995 78.16C90.7995 77.648 90.8422 77.2213 90.9275 76.88H89.9675C89.8822 76.5173 89.8395 76.0907 89.8395 75.6C89.8395 75.088 89.8822 74.6613 89.9675 74.32H90.9275C90.8422 73.9573 90.7995 73.5307 90.7995 73.04C90.7995 72.528 90.8422 72.1013 90.9275 71.76H92.5275C92.4422 71.3973 92.3995 70.9707 92.3995 70.48C92.3995 69.968 92.4422 69.5413 92.5275 69.2H98.9275C99.0128 69.5413 99.0555 69.968 99.0555 70.48C99.0555 70.9707 99.0128 71.3973 98.9275 71.76H100.208C100.293 72.1013 100.336 72.528 100.336 73.04ZM97.6475 74.32C97.5622 73.9573 97.5195 73.5307 97.5195 73.04C97.5195 72.528 97.5622 72.1013 97.6475 71.76H93.4875C93.5728 72.1013 93.6155 72.528 93.6155 73.04C93.6155 73.5307 93.5728 73.9573 93.4875 74.32H97.6475ZM113.148 70.48C113.148 70.9707 113.105 71.3973 113.02 71.76H112.06C112.145 72.1013 112.188 72.528 112.188 73.04C112.188 73.5307 112.145 73.9573 112.06 74.32H111.1C111.185 74.6613 111.228 75.088 111.228 75.6C111.228 76.0907 111.185 76.5173 111.1 76.88H110.46C110.545 77.2213 110.588 77.648 110.588 78.16C110.588 78.6507 110.545 79.0773 110.46 79.44H109.18C109.265 79.7813 109.308 80.208 109.308 80.72C109.308 81.2107 109.265 81.6373 109.18 82H106.62C106.535 81.6373 106.492 81.2107 106.492 80.72C106.492 80.208 106.535 79.7813 106.62 79.44H105.34C105.255 79.0773 105.212 78.6507 105.212 78.16C105.212 77.648 105.255 77.2213 105.34 76.88H104.7C104.615 76.5173 104.572 76.0907 104.572 75.6C104.572 75.088 104.615 74.6613 104.7 74.32H103.74C103.655 73.9573 103.612 73.5307 103.612 73.04C103.612 72.528 103.655 72.1013 103.74 71.76H102.78C102.695 71.3973 102.652 70.9707 102.652 70.48C102.652 69.968 102.695 69.5413 102.78 69.2H105.34C105.425 69.5413 105.468 69.968 105.468 70.48C105.468 70.9707 105.425 71.3973 105.34 71.76H106.3C106.385 72.1013 106.428 72.528 106.428 73.04C106.428 73.5307 106.385 73.9573 106.3 74.32H107.26C107.345 74.6613 107.388 75.088 107.388 75.6C107.388 76.0907 107.345 76.5173 107.26 76.88H108.54C108.455 76.5173 108.412 76.0907 108.412 75.6C108.412 75.088 108.455 74.6613 108.54 74.32H109.5C109.415 73.9573 109.372 73.5307 109.372 73.04C109.372 72.528 109.415 72.1013 109.5 71.76H110.46C110.375 71.3973 110.332 70.9707 110.332 70.48C110.332 69.968 110.375 69.5413 110.46 69.2H113.02C113.105 69.5413 113.148 69.968 113.148 70.48ZM125.961 73.04C125.961 73.5307 125.918 73.9573 125.833 74.32C125.918 74.6613 125.961 75.088 125.961 75.6C125.961 76.0907 125.918 76.5173 125.833 76.88H119.113C119.198 77.2213 119.241 77.648 119.241 78.16C119.241 78.6507 119.198 79.0773 119.113 79.44H124.553C124.638 79.7813 124.681 80.208 124.681 80.72C124.681 81.2107 124.638 81.6373 124.553 82H118.153C118.067 81.6373 118.025 81.2107 118.025 80.72C118.025 80.208 118.067 79.7813 118.153 79.44H116.553C116.467 79.0773 116.424 78.6507 116.424 78.16C116.424 77.648 116.467 77.2213 116.553 76.88H115.593C115.507 76.5173 115.465 76.0907 115.465 75.6C115.465 75.088 115.507 74.6613 115.593 74.32H116.553C116.467 73.9573 116.424 73.5307 116.424 73.04C116.424 72.528 116.467 72.1013 116.553 71.76H118.153C118.067 71.3973 118.025 70.9707 118.025 70.48C118.025 69.968 118.067 69.5413 118.153 69.2H124.553C124.638 69.5413 124.681 69.968 124.681 70.48C124.681 70.9707 124.638 71.3973 124.553 71.76H125.833C125.918 72.1013 125.961 72.528 125.961 73.04ZM123.273 74.32C123.187 73.9573 123.145 73.5307 123.145 73.04C123.145 72.528 123.187 72.1013 123.273 71.76H119.113C119.198 72.1013 119.241 72.528 119.241 73.04C119.241 73.5307 119.198 73.9573 119.113 74.32H123.273ZM138.645 71.76C138.73 72.1013 138.773 72.528 138.773 73.04C138.773 73.5307 138.73 73.9573 138.645 74.32H136.085C136 73.9573 135.957 73.5307 135.957 73.04C135.957 72.528 136 72.1013 136.085 71.76H133.845C133.93 72.1013 133.973 72.528 133.973 73.04C133.973 73.5307 133.93 73.9573 133.845 74.32H132.885C132.97 74.6613 133.013 75.088 133.013 75.6C133.013 76.0907 132.97 76.5173 132.885 76.88C132.97 77.2213 133.013 77.648 133.013 78.16C133.013 78.6507 132.97 79.0773 132.885 79.44H134.805C134.89 79.7813 134.933 80.208 134.933 80.72C134.933 81.2107 134.89 81.6373 134.805 82H128.405C128.32 81.6373 128.277 81.2107 128.277 80.72C128.277 80.208 128.32 79.7813 128.405 79.44H130.325C130.24 79.0773 130.197 78.6507 130.197 78.16C130.197 77.648 130.24 77.2213 130.325 76.88C130.24 76.5173 130.197 76.0907 130.197 75.6C130.197 75.088 130.24 74.6613 130.325 74.32C130.24 73.9573 130.197 73.5307 130.197 73.04C130.197 72.528 130.24 72.1013 130.325 71.76H128.405C128.32 71.3973 128.277 70.9707 128.277 70.48C128.277 69.968 128.32 69.5413 128.405 69.2H131.605C131.69 69.5413 131.733 69.968 131.733 70.48C131.733 70.9707 131.69 71.3973 131.605 71.76H132.885C132.8 71.3973 132.757 70.9707 132.757 70.48C132.757 69.968 132.8 69.5413 132.885 69.2H137.685C137.77 69.5413 137.813 69.968 137.813 70.48C137.813 70.9707 137.77 71.3973 137.685 71.76H138.645ZM151.586 70.48C151.586 70.9707 151.543 71.3973 151.458 71.76H150.498C150.583 72.1013 150.626 72.528 150.626 73.04C150.626 73.5307 150.583 73.9573 150.498 74.32H149.538C149.623 74.6613 149.666 75.088 149.666 75.6C149.666 76.0907 149.623 76.5173 149.538 76.88H148.898C148.983 77.2213 149.026 77.648 149.026 78.16C149.026 78.6507 148.983 79.0773 148.898 79.44H147.938C148.023 79.7813 148.066 80.208 148.066 80.72C148.066 81.2107 148.023 81.6373 147.938 82H147.298C147.383 82.3413 147.426 82.768 147.426 83.28C147.426 83.7707 147.383 84.1973 147.298 84.56H146.018C146.103 84.9013 146.146 85.328 146.146 85.84C146.146 86.3307 146.103 86.7573 146.018 87.12H142.178C142.092 86.7573 142.049 86.3307 142.049 85.84C142.049 85.328 142.092 84.9013 142.178 84.56H144.738C144.652 84.1973 144.61 83.7707 144.61 83.28C144.61 82.768 144.652 82.3413 144.738 82C144.652 81.6373 144.61 81.2107 144.61 80.72C144.61 80.208 144.652 79.7813 144.738 79.44H143.458C143.372 79.0773 143.33 78.6507 143.33 78.16C143.33 77.648 143.372 77.2213 143.458 76.88H142.818C142.732 76.5173 142.69 76.0907 142.69 75.6C142.69 75.088 142.732 74.6613 142.818 74.32H141.858C141.772 73.9573 141.73 73.5307 141.73 73.04C141.73 72.528 141.772 72.1013 141.858 71.76H140.898C140.812 71.3973 140.77 70.9707 140.77 70.48C140.77 69.968 140.812 69.5413 140.898 69.2H143.458C143.543 69.5413 143.586 69.968 143.586 70.48C143.586 70.9707 143.543 71.3973 143.458 71.76H144.418C144.503 72.1013 144.546 72.528 144.546 73.04C144.546 73.5307 144.503 73.9573 144.418 74.32H145.378C145.463 74.6613 145.506 75.088 145.506 75.6C145.506 76.0907 145.463 76.5173 145.378 76.88C145.463 77.2213 145.506 77.648 145.506 78.16C145.506 78.6507 145.463 79.0773 145.378 79.44H146.338C146.252 79.0773 146.21 78.6507 146.21 78.16C146.21 77.648 146.252 77.2213 146.338 76.88H146.978C146.892 76.5173 146.85 76.0907 146.85 75.6C146.85 75.088 146.892 74.6613 146.978 74.32H147.938C147.852 73.9573 147.81 73.5307 147.81 73.04C147.81 72.528 147.852 72.1013 147.938 71.76H148.898C148.812 71.3973 148.77 70.9707 148.77 70.48C148.77 69.968 148.812 69.5413 148.898 69.2H151.458C151.543 69.5413 151.586 69.968 151.586 70.48ZM162.99 79.44C163.075 79.7813 163.118 80.208 163.118 80.72C163.118 81.2107 163.075 81.6373 162.99 82H157.87C157.785 81.6373 157.742 81.2107 157.742 80.72C157.742 80.208 157.785 79.7813 157.87 79.44H156.59C156.505 79.0773 156.462 78.6507 156.462 78.16C156.462 77.648 156.505 77.2213 156.59 76.88C156.505 76.5173 156.462 76.0907 156.462 75.6C156.462 75.088 156.505 74.6613 156.59 74.32C156.505 73.9573 156.462 73.5307 156.462 73.04C156.462 72.528 156.505 72.1013 156.59 71.76H154.03C153.945 71.3973 153.902 70.9707 153.902 70.48C153.902 69.968 153.945 69.5413 154.03 69.2H156.59C156.505 68.8373 156.462 68.4107 156.462 67.92C156.462 67.408 156.505 66.9813 156.59 66.64C156.505 66.2773 156.462 65.8507 156.462 65.36C156.462 64.848 156.505 64.4213 156.59 64.08H159.15C159.235 64.4213 159.278 64.848 159.278 65.36C159.278 65.8507 159.235 66.2773 159.15 66.64C159.235 66.9813 159.278 67.408 159.278 67.92C159.278 68.4107 159.235 68.8373 159.15 69.2H162.99C163.075 69.5413 163.118 69.968 163.118 70.48C163.118 70.9707 163.075 71.3973 162.99 71.76H159.15C159.235 72.1013 159.278 72.528 159.278 73.04C159.278 73.5307 159.235 73.9573 159.15 74.32C159.235 74.6613 159.278 75.088 159.278 75.6C159.278 76.0907 159.235 76.5173 159.15 76.88C159.235 77.2213 159.278 77.648 159.278 78.16C159.278 78.6507 159.235 79.0773 159.15 79.44H162.99ZM169.531 70.48C169.531 70.9707 169.488 71.3973 169.403 71.76H170.363C170.448 72.1013 170.491 72.528 170.491 73.04C170.491 73.5307 170.448 73.9573 170.363 74.32H169.403C169.488 74.6613 169.531 75.088 169.531 75.6C169.531 76.0907 169.488 76.5173 169.403 76.88C169.488 77.2213 169.531 77.648 169.531 78.16C169.531 78.6507 169.488 79.0773 169.403 79.44C169.488 79.7813 169.531 80.208 169.531 80.72C169.531 81.2107 169.488 81.6373 169.403 82H166.843C166.757 81.6373 166.715 81.2107 166.715 80.72C166.715 80.208 166.757 79.7813 166.843 79.44C166.757 79.0773 166.715 78.6507 166.715 78.16C166.715 77.648 166.757 77.2213 166.843 76.88C166.757 76.5173 166.715 76.0907 166.715 75.6C166.715 75.088 166.757 74.6613 166.843 74.32C166.757 73.9573 166.715 73.5307 166.715 73.04C166.715 72.528 166.757 72.1013 166.843 71.76C166.757 71.3973 166.715 70.9707 166.715 70.48C166.715 69.968 166.757 69.5413 166.843 69.2C166.757 68.8373 166.715 68.4107 166.715 67.92C166.715 67.408 166.757 66.9813 166.843 66.64C166.757 66.2773 166.715 65.8507 166.715 65.36C166.715 64.848 166.757 64.4213 166.843 64.08H169.403C169.488 64.4213 169.531 64.848 169.531 65.36C169.531 65.8507 169.488 66.2773 169.403 66.64C169.488 66.9813 169.531 67.408 169.531 67.92C169.531 68.4107 169.488 68.8373 169.403 69.2C169.488 69.5413 169.531 69.968 169.531 70.48ZM177.083 74.32C177.168 74.6613 177.211 75.088 177.211 75.6C177.211 76.0907 177.168 76.5173 177.083 76.88C177.168 77.2213 177.211 77.648 177.211 78.16C177.211 78.6507 177.168 79.0773 177.083 79.44C177.168 79.7813 177.211 80.208 177.211 80.72C177.211 81.2107 177.168 81.6373 177.083 82H174.523C174.437 81.6373 174.395 81.2107 174.395 80.72C174.395 80.208 174.437 79.7813 174.523 79.44C174.437 79.0773 174.395 78.6507 174.395 78.16C174.395 77.648 174.437 77.2213 174.523 76.88C174.437 76.5173 174.395 76.0907 174.395 75.6C174.395 75.088 174.437 74.6613 174.523 74.32C174.437 73.9573 174.395 73.5307 174.395 73.04C174.395 72.528 174.437 72.1013 174.523 71.76H170.363C170.277 71.3973 170.235 70.9707 170.235 70.48C170.235 69.968 170.277 69.5413 170.363 69.2H175.483C175.568 69.5413 175.611 69.968 175.611 70.48C175.611 70.9707 175.568 71.3973 175.483 71.76H177.083C177.168 72.1013 177.211 72.528 177.211 73.04C177.211 73.5307 177.168 73.9573 177.083 74.32ZM183.495 66.64C183.41 66.2773 183.367 65.8507 183.367 65.36C183.367 64.848 183.41 64.4213 183.495 64.08H186.055C186.14 64.4213 186.183 64.848 186.183 65.36C186.183 65.8507 186.14 66.2773 186.055 66.64H183.495ZM188.615 79.44C188.7 79.7813 188.743 80.208 188.743 80.72C188.743 81.2107 188.7 81.6373 188.615 82H180.935C180.85 81.6373 180.807 81.2107 180.807 80.72C180.807 80.208 180.85 79.7813 180.935 79.44H183.495C183.41 79.0773 183.367 78.6507 183.367 78.16C183.367 77.648 183.41 77.2213 183.495 76.88C183.41 76.5173 183.367 76.0907 183.367 75.6C183.367 75.088 183.41 74.6613 183.495 74.32C183.41 73.9573 183.367 73.5307 183.367 73.04C183.367 72.528 183.41 72.1013 183.495 71.76H181.575C181.49 71.3973 181.447 70.9707 181.447 70.48C181.447 69.968 181.49 69.5413 181.575 69.2H186.055C186.14 69.5413 186.183 69.968 186.183 70.48C186.183 70.9707 186.14 71.3973 186.055 71.76C186.14 72.1013 186.183 72.528 186.183 73.04C186.183 73.5307 186.14 73.9573 186.055 74.32C186.14 74.6613 186.183 75.088 186.183 75.6C186.183 76.0907 186.14 76.5173 186.055 76.88C186.14 77.2213 186.183 77.648 186.183 78.16C186.183 78.6507 186.14 79.0773 186.055 79.44H188.615ZM194.836 70.48C194.836 70.9707 194.793 71.3973 194.708 71.76H195.988C196.073 72.1013 196.116 72.528 196.116 73.04C196.116 73.5307 196.073 73.9573 195.988 74.32H195.028C195.113 74.6613 195.156 75.088 195.156 75.6C195.156 76.0907 195.113 76.5173 195.028 76.88C195.113 77.2213 195.156 77.648 195.156 78.16C195.156 78.6507 195.113 79.0773 195.028 79.44C195.113 79.7813 195.156 80.208 195.156 80.72C195.156 81.2107 195.113 81.6373 195.028 82H192.468C192.382 81.6373 192.34 81.2107 192.34 80.72C192.34 80.208 192.382 79.7813 192.468 79.44C192.382 79.0773 192.34 78.6507 192.34 78.16C192.34 77.648 192.382 77.2213 192.468 76.88C192.382 76.5173 192.34 76.0907 192.34 75.6C192.34 75.088 192.382 74.6613 192.468 74.32C192.382 73.9573 192.34 73.5307 192.34 73.04C192.34 72.528 192.382 72.1013 192.468 71.76C192.382 71.3973 192.34 70.9707 192.34 70.48C192.34 69.968 192.382 69.5413 192.468 69.2H194.708C194.793 69.5413 194.836 69.968 194.836 70.48ZM202.708 74.32C202.793 74.6613 202.836 75.088 202.836 75.6C202.836 76.0907 202.793 76.5173 202.708 76.88C202.793 77.2213 202.836 77.648 202.836 78.16C202.836 78.6507 202.793 79.0773 202.708 79.44C202.793 79.7813 202.836 80.208 202.836 80.72C202.836 81.2107 202.793 81.6373 202.708 82H200.148C200.062 81.6373 200.02 81.2107 200.02 80.72C200.02 80.208 200.062 79.7813 200.148 79.44C200.062 79.0773 200.02 78.6507 200.02 78.16C200.02 77.648 200.062 77.2213 200.148 76.88C200.062 76.5173 200.02 76.0907 200.02 75.6C200.02 75.088 200.062 74.6613 200.148 74.32C200.062 73.9573 200.02 73.5307 200.02 73.04C200.02 72.528 200.062 72.1013 200.148 71.76H195.988C195.902 71.3973 195.86 70.9707 195.86 70.48C195.86 69.968 195.902 69.5413 195.988 69.2H201.108C201.193 69.5413 201.236 69.968 201.236 70.48C201.236 70.9707 201.193 71.3973 201.108 71.76H202.708C202.793 72.1013 202.836 72.528 202.836 73.04C202.836 73.5307 202.793 73.9573 202.708 74.32ZM215.52 71.76C215.605 72.1013 215.648 72.528 215.648 73.04C215.648 73.5307 215.605 73.9573 215.52 74.32C215.605 74.6613 215.648 75.088 215.648 75.6C215.648 76.0907 215.605 76.5173 215.52 76.88C215.605 77.2213 215.648 77.648 215.648 78.16C215.648 78.6507 215.605 79.0773 215.52 79.44C215.605 79.7813 215.648 80.208 215.648 80.72C215.648 81.2107 215.605 81.6373 215.52 82H214.24C214.325 82.3413 214.368 82.768 214.368 83.28C214.368 83.7707 214.325 84.1973 214.24 84.56H212.96C213.045 84.9013 213.088 85.328 213.088 85.84C213.088 86.3307 213.045 86.7573 212.96 87.12H207.84C207.755 86.7573 207.712 86.3307 207.712 85.84C207.712 85.328 207.755 84.9013 207.84 84.56H211.68C211.595 84.1973 211.552 83.7707 211.552 83.28C211.552 82.768 211.595 82.3413 211.68 82H212.96C212.875 81.6373 212.832 81.2107 212.832 80.72C212.832 80.208 212.875 79.7813 212.96 79.44H211.68C211.595 79.0773 211.552 78.6507 211.552 78.16C211.552 77.648 211.595 77.2213 211.68 76.88H212.96C212.875 76.5173 212.832 76.0907 212.832 75.6C212.832 75.088 212.875 74.6613 212.96 74.32C212.875 73.9573 212.832 73.5307 212.832 73.04C212.832 72.528 212.875 72.1013 212.96 71.76H208.8C208.885 72.1013 208.928 72.528 208.928 73.04C208.928 73.5307 208.885 73.9573 208.8 74.32H207.84C207.925 74.6613 207.968 75.088 207.968 75.6C207.968 76.0907 207.925 76.5173 207.84 76.88H208.8C208.885 77.2213 208.928 77.648 208.928 78.16C208.928 78.6507 208.885 79.0773 208.8 79.44H211.68C211.765 79.7813 211.808 80.208 211.808 80.72C211.808 81.2107 211.765 81.6373 211.68 82H207.84C207.755 81.6373 207.712 81.2107 207.712 80.72C207.712 80.208 207.755 79.7813 207.84 79.44H206.24C206.155 79.0773 206.112 78.6507 206.112 78.16C206.112 77.648 206.155 77.2213 206.24 76.88H205.28C205.195 76.5173 205.152 76.0907 205.152 75.6C205.152 75.088 205.195 74.6613 205.28 74.32H206.24C206.155 73.9573 206.112 73.5307 206.112 73.04C206.112 72.528 206.155 72.1013 206.24 71.76H207.84C207.755 71.3973 207.712 70.9707 207.712 70.48C207.712 69.968 207.755 69.5413 207.84 69.2H215.52C215.605 69.5413 215.648 69.968 215.648 70.48C215.648 70.9707 215.605 71.3973 215.52 71.76ZM234.745 66.64C234.66 66.2773 234.617 65.8507 234.617 65.36C234.617 64.848 234.66 64.4213 234.745 64.08H237.305C237.39 64.4213 237.433 64.848 237.433 65.36C237.433 65.8507 237.39 66.2773 237.305 66.64H234.745ZM239.865 79.44C239.95 79.7813 239.993 80.208 239.993 80.72C239.993 81.2107 239.95 81.6373 239.865 82H232.185C232.1 81.6373 232.057 81.2107 232.057 80.72C232.057 80.208 232.1 79.7813 232.185 79.44H234.745C234.66 79.0773 234.617 78.6507 234.617 78.16C234.617 77.648 234.66 77.2213 234.745 76.88C234.66 76.5173 234.617 76.0907 234.617 75.6C234.617 75.088 234.66 74.6613 234.745 74.32C234.66 73.9573 234.617 73.5307 234.617 73.04C234.617 72.528 234.66 72.1013 234.745 71.76H232.825C232.74 71.3973 232.697 70.9707 232.697 70.48C232.697 69.968 232.74 69.5413 232.825 69.2H237.305C237.39 69.5413 237.433 69.968 237.433 70.48C237.433 70.9707 237.39 71.3973 237.305 71.76C237.39 72.1013 237.433 72.528 237.433 73.04C237.433 73.5307 237.39 73.9573 237.305 74.32C237.39 74.6613 237.433 75.088 237.433 75.6C237.433 76.0907 237.39 76.5173 237.305 76.88C237.39 77.2213 237.433 77.648 237.433 78.16C237.433 78.6507 237.39 79.0773 237.305 79.44H239.865ZM246.086 70.48C246.086 70.9707 246.043 71.3973 245.958 71.76H247.238C247.323 72.1013 247.366 72.528 247.366 73.04C247.366 73.5307 247.323 73.9573 247.238 74.32H246.278C246.363 74.6613 246.406 75.088 246.406 75.6C246.406 76.0907 246.363 76.5173 246.278 76.88C246.363 77.2213 246.406 77.648 246.406 78.16C246.406 78.6507 246.363 79.0773 246.278 79.44C246.363 79.7813 246.406 80.208 246.406 80.72C246.406 81.2107 246.363 81.6373 246.278 82H243.718C243.632 81.6373 243.59 81.2107 243.59 80.72C243.59 80.208 243.632 79.7813 243.718 79.44C243.632 79.0773 243.59 78.6507 243.59 78.16C243.59 77.648 243.632 77.2213 243.718 76.88C243.632 76.5173 243.59 76.0907 243.59 75.6C243.59 75.088 243.632 74.6613 243.718 74.32C243.632 73.9573 243.59 73.5307 243.59 73.04C243.59 72.528 243.632 72.1013 243.718 71.76C243.632 71.3973 243.59 70.9707 243.59 70.48C243.59 69.968 243.632 69.5413 243.718 69.2H245.958C246.043 69.5413 246.086 69.968 246.086 70.48ZM253.958 74.32C254.043 74.6613 254.086 75.088 254.086 75.6C254.086 76.0907 254.043 76.5173 253.958 76.88C254.043 77.2213 254.086 77.648 254.086 78.16C254.086 78.6507 254.043 79.0773 253.958 79.44C254.043 79.7813 254.086 80.208 254.086 80.72C254.086 81.2107 254.043 81.6373 253.958 82H251.398C251.312 81.6373 251.27 81.2107 251.27 80.72C251.27 80.208 251.312 79.7813 251.398 79.44C251.312 79.0773 251.27 78.6507 251.27 78.16C251.27 77.648 251.312 77.2213 251.398 76.88C251.312 76.5173 251.27 76.0907 251.27 75.6C251.27 75.088 251.312 74.6613 251.398 74.32C251.312 73.9573 251.27 73.5307 251.27 73.04C251.27 72.528 251.312 72.1013 251.398 71.76H247.238C247.152 71.3973 247.11 70.9707 247.11 70.48C247.11 69.968 247.152 69.5413 247.238 69.2H252.358C252.443 69.5413 252.486 69.968 252.486 70.48C252.486 70.9707 252.443 71.3973 252.358 71.76H253.958C254.043 72.1013 254.086 72.528 254.086 73.04C254.086 73.5307 254.043 73.9573 253.958 74.32ZM278.303 79.44C278.388 79.7813 278.431 80.208 278.431 80.72C278.431 81.2107 278.388 81.6373 278.303 82H273.183C273.097 81.6373 273.055 81.2107 273.055 80.72C273.055 80.208 273.097 79.7813 273.183 79.44H271.903C271.817 79.0773 271.775 78.6507 271.775 78.16C271.775 77.648 271.817 77.2213 271.903 76.88C271.817 76.5173 271.775 76.0907 271.775 75.6C271.775 75.088 271.817 74.6613 271.903 74.32C271.817 73.9573 271.775 73.5307 271.775 73.04C271.775 72.528 271.817 72.1013 271.903 71.76H269.343C269.257 71.3973 269.215 70.9707 269.215 70.48C269.215 69.968 269.257 69.5413 269.343 69.2H271.903C271.817 68.8373 271.775 68.4107 271.775 67.92C271.775 67.408 271.817 66.9813 271.903 66.64C271.817 66.2773 271.775 65.8507 271.775 65.36C271.775 64.848 271.817 64.4213 271.903 64.08H274.463C274.548 64.4213 274.591 64.848 274.591 65.36C274.591 65.8507 274.548 66.2773 274.463 66.64C274.548 66.9813 274.591 67.408 274.591 67.92C274.591 68.4107 274.548 68.8373 274.463 69.2H278.303C278.388 69.5413 278.431 69.968 278.431 70.48C278.431 70.9707 278.388 71.3973 278.303 71.76H274.463C274.548 72.1013 274.591 72.528 274.591 73.04C274.591 73.5307 274.548 73.9573 274.463 74.32C274.548 74.6613 274.591 75.088 274.591 75.6C274.591 76.0907 274.548 76.5173 274.463 76.88C274.548 77.2213 274.591 77.648 274.591 78.16C274.591 78.6507 274.548 79.0773 274.463 79.44H278.303ZM292.523 73.04C292.523 73.5307 292.48 73.9573 292.395 74.32C292.48 74.6613 292.523 75.088 292.523 75.6C292.523 76.0907 292.48 76.5173 292.395 76.88H285.675C285.76 77.2213 285.803 77.648 285.803 78.16C285.803 78.6507 285.76 79.0773 285.675 79.44H291.115C291.2 79.7813 291.243 80.208 291.243 80.72C291.243 81.2107 291.2 81.6373 291.115 82H284.715C284.63 81.6373 284.587 81.2107 284.587 80.72C284.587 80.208 284.63 79.7813 284.715 79.44H283.115C283.03 79.0773 282.987 78.6507 282.987 78.16C282.987 77.648 283.03 77.2213 283.115 76.88H282.155C282.07 76.5173 282.027 76.0907 282.027 75.6C282.027 75.088 282.07 74.6613 282.155 74.32H283.115C283.03 73.9573 282.987 73.5307 282.987 73.04C282.987 72.528 283.03 72.1013 283.115 71.76H284.715C284.63 71.3973 284.587 70.9707 284.587 70.48C284.587 69.968 284.63 69.5413 284.715 69.2H291.115C291.2 69.5413 291.243 69.968 291.243 70.48C291.243 70.9707 291.2 71.3973 291.115 71.76H292.395C292.48 72.1013 292.523 72.528 292.523 73.04ZM289.835 74.32C289.75 73.9573 289.707 73.5307 289.707 73.04C289.707 72.528 289.75 72.1013 289.835 71.76H285.675C285.76 72.1013 285.803 72.528 285.803 73.04C285.803 73.5307 285.76 73.9573 285.675 74.32H289.835ZM305.208 76.88C305.293 77.2213 305.336 77.648 305.336 78.16C305.336 78.6507 305.293 79.0773 305.208 79.44H303.928C304.013 79.7813 304.056 80.208 304.056 80.72C304.056 81.2107 304.013 81.6373 303.928 82H297.528C297.442 81.6373 297.4 81.2107 297.4 80.72C297.4 80.208 297.442 79.7813 297.528 79.44H296.248C296.162 79.0773 296.12 78.6507 296.12 78.16C296.12 77.648 296.162 77.2213 296.248 76.88H294.968C294.882 76.5173 294.84 76.0907 294.84 75.6C294.84 75.088 294.882 74.6613 294.968 74.32H296.248C296.162 73.9573 296.12 73.5307 296.12 73.04C296.12 72.528 296.162 72.1013 296.248 71.76H297.528C297.442 71.3973 297.4 70.9707 297.4 70.48C297.4 69.968 297.442 69.5413 297.528 69.2H303.928C304.013 69.5413 304.056 69.968 304.056 70.48C304.056 70.9707 304.013 71.3973 303.928 71.76H305.208C305.293 72.1013 305.336 72.528 305.336 73.04C305.336 73.5307 305.293 73.9573 305.208 74.32H302.648C302.562 73.9573 302.52 73.5307 302.52 73.04C302.52 72.528 302.562 72.1013 302.648 71.76H298.808C298.893 72.1013 298.936 72.528 298.936 73.04C298.936 73.5307 298.893 73.9573 298.808 74.32H297.528C297.613 74.6613 297.656 75.088 297.656 75.6C297.656 76.0907 297.613 76.5173 297.528 76.88H298.808C298.893 77.2213 298.936 77.648 298.936 78.16C298.936 78.6507 298.893 79.0773 298.808 79.44H302.648C302.562 79.0773 302.52 78.6507 302.52 78.16C302.52 77.648 302.562 77.2213 302.648 76.88H305.208ZM310.468 70.48C310.468 70.9707 310.425 71.3973 310.34 71.76H311.3C311.385 72.1013 311.428 72.528 311.428 73.04C311.428 73.5307 311.385 73.9573 311.3 74.32H310.34C310.425 74.6613 310.468 75.088 310.468 75.6C310.468 76.0907 310.425 76.5173 310.34 76.88C310.425 77.2213 310.468 77.648 310.468 78.16C310.468 78.6507 310.425 79.0773 310.34 79.44C310.425 79.7813 310.468 80.208 310.468 80.72C310.468 81.2107 310.425 81.6373 310.34 82H307.78C307.695 81.6373 307.652 81.2107 307.652 80.72C307.652 80.208 307.695 79.7813 307.78 79.44C307.695 79.0773 307.652 78.6507 307.652 78.16C307.652 77.648 307.695 77.2213 307.78 76.88C307.695 76.5173 307.652 76.0907 307.652 75.6C307.652 75.088 307.695 74.6613 307.78 74.32C307.695 73.9573 307.652 73.5307 307.652 73.04C307.652 72.528 307.695 72.1013 307.78 71.76C307.695 71.3973 307.652 70.9707 307.652 70.48C307.652 69.968 307.695 69.5413 307.78 69.2C307.695 68.8373 307.652 68.4107 307.652 67.92C307.652 67.408 307.695 66.9813 307.78 66.64C307.695 66.2773 307.652 65.8507 307.652 65.36C307.652 64.848 307.695 64.4213 307.78 64.08H310.34C310.425 64.4213 310.468 64.848 310.468 65.36C310.468 65.8507 310.425 66.2773 310.34 66.64C310.425 66.9813 310.468 67.408 310.468 67.92C310.468 68.4107 310.425 68.8373 310.34 69.2C310.425 69.5413 310.468 69.968 310.468 70.48ZM318.02 74.32C318.105 74.6613 318.148 75.088 318.148 75.6C318.148 76.0907 318.105 76.5173 318.02 76.88C318.105 77.2213 318.148 77.648 318.148 78.16C318.148 78.6507 318.105 79.0773 318.02 79.44C318.105 79.7813 318.148 80.208 318.148 80.72C318.148 81.2107 318.105 81.6373 318.02 82H315.46C315.375 81.6373 315.332 81.2107 315.332 80.72C315.332 80.208 315.375 79.7813 315.46 79.44C315.375 79.0773 315.332 78.6507 315.332 78.16C315.332 77.648 315.375 77.2213 315.46 76.88C315.375 76.5173 315.332 76.0907 315.332 75.6C315.332 75.088 315.375 74.6613 315.46 74.32C315.375 73.9573 315.332 73.5307 315.332 73.04C315.332 72.528 315.375 72.1013 315.46 71.76H311.3C311.215 71.3973 311.172 70.9707 311.172 70.48C311.172 69.968 311.215 69.5413 311.3 69.2H316.42C316.505 69.5413 316.548 69.968 316.548 70.48C316.548 70.9707 316.505 71.3973 316.42 71.76H318.02C318.105 72.1013 318.148 72.528 318.148 73.04C318.148 73.5307 318.105 73.9573 318.02 74.32ZM327.441 78.16C327.441 78.6507 327.398 79.0773 327.312 79.44C327.398 79.7813 327.441 80.208 327.441 80.72C327.441 81.2107 327.398 81.6373 327.312 82H324.113C324.027 81.6373 323.985 81.2107 323.985 80.72C323.985 80.208 324.027 79.7813 324.113 79.44C324.027 79.0773 323.985 78.6507 323.985 78.16C323.985 77.648 324.027 77.2213 324.113 76.88H327.312C327.398 77.2213 327.441 77.648 327.441 78.16Z" fill="white"/>
</svg>
